<?xml version="1.0" encoding="UTF-8" standalone="no"?>
<!-- Created with Inkscape (http://www.inkscape.org/) -->

<svg
   xmlns:dc="http://purl.org/dc/elements/1.1/"
   xmlns:cc="http://creativecommons.org/ns#"
   xmlns:rdf="http://www.w3.org/1999/02/22-rdf-syntax-ns#"
   xmlns:svg="http://www.w3.org/2000/svg"
   xmlns="http://www.w3.org/2000/svg"
   version="1.1"
   width="744.09448"
   height="1052.3622"
   id="svg2">
  <defs
     id="defs4">
    <marker
       refX="0"
       refY="0"
       orient="auto"
       id="Arrow1Lend"
       style="overflow:visible">
      <path
         d="M 0,0 5,-5 -12.5,0 5,5 0,0 z"
         transform="matrix(-0.8,0,0,-0.8,-10,0)"
         id="path3790"
         style="fill-rule:evenodd;stroke:#000000;stroke-width:1pt" />
    </marker>
    <marker
       refX="0"
       refY="0"
       orient="auto"
       id="Arrow1Lstart"
       style="overflow:visible">
      <path
         d="M 0,0 5,-5 -12.5,0 5,5 0,0 z"
         transform="matrix(0.8,0,0,0.8,10,0)"
         id="path3787"
         style="fill-rule:evenodd;stroke:#000000;stroke-width:1pt" />
    </marker>
    <marker
       refX="0"
       refY="0"
       orient="auto"
       id="Arrow2Lend"
       style="overflow:visible">
      <path
         d="M 8.7185878,4.0337352 -2.2072895,0.01601326 8.7185884,-4.0017078 c -1.7454984,2.3720609 -1.7354408,5.6174519 -6e-7,8.035443 z"
         transform="matrix(-1.1,0,0,-1.1,-1.1,0)"
         id="path3808"
         style="fill-rule:evenodd;stroke-width:0.625;stroke-linejoin:round" />
    </marker>
    <marker
       refX="0"
       refY="0"
       orient="auto"
       id="Arrow1Mend"
       style="overflow:visible">
      <path
         d="M 0,0 5,-5 -12.5,0 5,5 0,0 z"
         transform="matrix(-0.4,0,0,-0.4,-4,0)"
         id="path3796"
         style="fill-rule:evenodd;stroke:#000000;stroke-width:1pt" />
    </marker>
    <marker
       refX="0"
       refY="0"
       orient="auto"
       id="Arrow2Mend"
       style="overflow:visible">
      <path
         d="M 8.7185878,4.0337352 -2.2072895,0.01601326 8.7185884,-4.0017078 c -1.7454984,2.3720609 -1.7354408,5.6174519 -6e-7,8.035443 z"
         transform="scale(-0.6,-0.6)"
         id="path3814"
         style="fill-rule:evenodd;stroke-width:0.625;stroke-linejoin:round" />
    </marker>
    <marker
       refX="0"
       refY="0"
       orient="auto"
       id="Arrow1Send"
       style="overflow:visible">
      <path
         d="M 0,0 5,-5 -12.5,0 5,5 0,0 z"
         transform="matrix(-0.2,0,0,-0.2,-1.2,0)"
         id="path3802"
         style="fill-rule:evenodd;stroke:#000000;stroke-width:1pt" />
    </marker>
    <marker
       refX="0"
       refY="0"
       orient="auto"
       id="Arrow2Mend-6"
       style="overflow:visible">
      <path
         d="M 8.7185878,4.0337352 -2.2072895,0.01601326 8.7185884,-4.0017078 c -1.7454984,2.3720609 -1.7354408,5.6174519 -6e-7,8.035443 z"
         transform="scale(-0.6,-0.6)"
         id="path3814-7"
         style="fill-rule:evenodd;stroke-width:0.625;stroke-linejoin:round" />
    </marker>
    <marker
       refX="0"
       refY="0"
       orient="auto"
       id="Arrow2Mend-3"
       style="overflow:visible">
      <path
         d="M 8.7185878,4.0337352 -2.2072895,0.01601326 8.7185884,-4.0017078 c -1.7454984,2.3720609 -1.7354408,5.6174519 -6e-7,8.035443 z"
         transform="scale(-0.6,-0.6)"
         id="path3814-5"
         style="fill-rule:evenodd;stroke-width:0.625;stroke-linejoin:round" />
    </marker>
    <marker
       refX="0"
       refY="0"
       orient="auto"
       id="Arrow2Mend-2"
       style="overflow:visible">
      <path
         d="M 8.7185878,4.0337352 -2.2072895,0.01601326 8.7185884,-4.0017078 c -1.7454984,2.3720609 -1.7354408,5.6174519 -6e-7,8.035443 z"
         transform="scale(-0.6,-0.6)"
         id="path3814-9"
         style="fill-rule:evenodd;stroke-width:0.625;stroke-linejoin:round" />
    </marker>
  </defs>
  <metadata
     id="metadata7">
    <rdf:RDF>
      <cc:Work
         rdf:about="">
        <dc:format>image/svg+xml</dc:format>
        <dc:type
           rdf:resource="http://purl.org/dc/dcmitype/StillImage" />
        <dc:title></dc:title>
      </cc:Work>
    </rdf:RDF>
  </metadata>
  <g
     id="layer1">
    <path
       d="m 314.28571,159.04457 0,461.42857"
       id="path2985"
       style="fill:none;stroke:#000000;stroke-width:1px;stroke-linecap:butt;stroke-linejoin:miter;stroke-opacity:1;marker-start:url(#Arrow1Lstart);marker-end:none" />
    <path
       d="M 243.70813,127.19881 z"
       id="path2987"
       style="fill:none;stroke:#000000;stroke-width:0.73570335px;stroke-linecap:butt;stroke-linejoin:miter;stroke-opacity:1" />
    <path
       d="M 181.36188,257.48473 523.71147,421.05499"
       id="path2989"
       style="fill:none;stroke:#000000;stroke-width:1px;stroke-linecap:butt;stroke-linejoin:miter;stroke-opacity:1;marker-start:url(#Arrow1Lstart)" />
    <path
       d="M 553.99244,259.26488 86.007567,379.7452"
       id="path2989-3"
       style="fill:none;stroke:#000000;stroke-width:1px;stroke-linecap:butt;stroke-linejoin:miter;stroke-opacity:1;marker-start:none;marker-end:url(#Arrow1Lend)" />
    <path
       d="m 513.09354,415.10549 -200.2364,-94.17188 210,-54.28572"
       id="path3011"
       style="fill:none;stroke:#000000;stroke-width:2;stroke-linecap:butt;stroke-linejoin:miter;stroke-miterlimit:4;stroke-opacity:1;stroke-dasharray:none" />
    <path
       d="m 358.57079,441.22418 -88.67136,40.2117"
       id="path3781"
       style="fill:none;stroke:#000000;stroke-width:3;stroke-linecap:butt;stroke-linejoin:miter;stroke-miterlimit:4;stroke-opacity:1;stroke-dasharray:none;marker-end:url(#Arrow2Mend)" />
    <path
       d="m 474.25123,451.57854 65.90328,39.93557"
       id="path3781-5"
       style="fill:none;stroke:#000000;stroke-width:3.13249397;stroke-linecap:butt;stroke-linejoin:miter;stroke-miterlimit:4;stroke-opacity:1;stroke-dasharray:none;stroke-dashoffset:0;marker-end:url(#Arrow2Mend)" />
    <path
       d="m 369.87851,413.91198 -84.75755,-47.914"
       id="path3781-6"
       style="fill:none;stroke:#000000;stroke-width:3;stroke-linecap:butt;stroke-linejoin:miter;stroke-miterlimit:4;stroke-opacity:1;stroke-dasharray:3, 3;stroke-dashoffset:0;marker-end:url(#Arrow2Mend)" />
    <path
       d="m 431.52731,322.6202 0.65632,-97.36099"
       id="path3781-1"
       style="fill:none;stroke:#000000;stroke-width:3;stroke-linecap:butt;stroke-linejoin:miter;stroke-miterlimit:4;stroke-opacity:1;stroke-dasharray:none;marker-end:url(#Arrow2Mend)" />
    <path
       d="m 312.85714,319.50504 0.71429,285 200.71429,-189.28571 9.2857,-149.28572"
       id="path4477"
       style="fill:none;stroke:#000000;stroke-width:2;stroke-linecap:butt;stroke-linejoin:miter;stroke-miterlimit:4;stroke-opacity:1;stroke-dasharray:none" />
    <path
       d="M 312.85714,605.21933 521.42857,268.07646"
       id="path4479"
       style="fill:none;stroke:#000000;stroke-width:1px;stroke-linecap:butt;stroke-linejoin:miter;stroke-opacity:1" />
    <path
       d="m 289.85643,368.78204 24.28571,13.36222"
       id="path4481"
       style="fill:none;stroke:#000000;stroke-width:3;stroke-linecap:butt;stroke-linejoin:miter;stroke-miterlimit:4;stroke-opacity:1;stroke-dasharray:none" />
    <path
       d="M 475.27677,451.32142 455.07372,438.69451"
       id="path4483"
       style="fill:none;stroke:#000000;stroke-width:3;stroke-linecap:butt;stroke-linejoin:miter;stroke-miterlimit:4;stroke-opacity:1;stroke-dasharray:3, 3;stroke-dashoffset:0" />
    <path
       d="M 431.42857,320.93361 388.57143,156.6479"
       id="path4485"
       style="fill:none;stroke:#000000;stroke-width:2;stroke-linecap:butt;stroke-linejoin:miter;stroke-miterlimit:4;stroke-opacity:1;stroke-dasharray:none;marker-end:url(#Arrow2Mend-2)" />
    <path
       d="M 358.57143,440.93361 260,560.93361"
       id="path4487"
       style="fill:none;stroke:#000000;stroke-width:2;stroke-linecap:butt;stroke-linejoin:miter;stroke-miterlimit:4;stroke-opacity:1;stroke-dasharray:none;marker-end:url(#Arrow2Mend-2)" />
    <path
       d="m 468.29043,459.65733 68.85243,111.27628"
       id="path4489"
       style="fill:none;stroke:#000000;stroke-width:2;stroke-linecap:butt;stroke-linejoin:miter;stroke-miterlimit:4;stroke-opacity:1;stroke-dasharray:none;marker-end:url(#Arrow2Mend-2)" />
    <path
       d="M 311.847,404.8009 208.57143,388.07647"
       id="path4491"
       style="fill:none;stroke:#000000;stroke-width:2;stroke-linecap:butt;stroke-linejoin:miter;stroke-miterlimit:4;stroke-opacity:1;stroke-dasharray:none;marker-end:url(#Arrow2Mend-2)" />
    <path
       d="m 313.14729,404.91568 53.53808,8.01994"
       id="path4683"
       style="fill:none;stroke:#000000;stroke-width:2;stroke-linecap:butt;stroke-linejoin:miter;stroke-miterlimit:4;stroke-opacity:1;stroke-dasharray:2, 2;stroke-dashoffset:0" />
    <path
       d="m 457.85714,441.6479 9.28572,15.71428"
       id="path4685"
       style="fill:none;stroke:#000000;stroke-width:2;stroke-linecap:butt;stroke-linejoin:miter;stroke-miterlimit:4;stroke-opacity:1;stroke-dasharray:2, 2;stroke-dashoffset:0" />
    <g
       transform="matrix(0.77235756,0,0,0.7007887,-25.733239,2.3009877)"
       id="g4740">
      <g
         transform="matrix(1.0629921,0,0,-1.0629921,-186.02362,789.27165)"
         id="content"
         xml:space="preserve"
         style="font-style:normal;font-variant:normal;font-weight:normal;font-stretch:normal;letter-spacing:normal;word-spacing:normal;text-anchor:start;fill:none;stroke:#000000;stroke-linecap:butt;stroke-linejoin:miter;stroke-miterlimit:10.43299961;stroke-opacity:1;stroke-dasharray:none;stroke-dashoffset:0"><path
           d="m 472.16,421.25 0.03,0.13 0.04,0.15 0.04,0.16 0.04,0.18 0.06,0.19 0.06,0.21 0.06,0.22 0.07,0.22 0.08,0.23 0.09,0.24 0.1,0.25 0.1,0.24 0.11,0.25 0.12,0.25 0.13,0.25 0.14,0.25 0.15,0.24 0.15,0.24 0.17,0.23 0.18,0.22 0.18,0.22 0.2,0.2 0.21,0.19 0.22,0.18 0.23,0.16 0.25,0.14 0.12,0.07 0.13,0.06 0.14,0.05 0.13,0.05 0.14,0.05 0.14,0.04 0.15,0.03 0.15,0.03 0.15,0.02 0.16,0.02 0.16,0.01 0.16,0 c 0.25,0 1.44,0 2.48,-0.64 -1.39,-0.25 -2.39,-1.5 -2.39,-2.69 0,-0.79 0.55,-1.75 1.89,-1.75 1.1,0 2.69,0.89 2.69,2.89 0,2.6 -2.94,3.28 -4.63,3.28 -2.89,0 -4.64,-2.64 -5.23,-3.78 -1.25,3.28 -3.94,3.78 -5.37,3.78 -5.19,0 -8.04,-6.42 -8.04,-7.67 0,-0.5 0.5,-0.5 0.61,-0.5 0.39,0 0.55,0.11 0.64,0.55 1.69,5.28 4.99,6.53 6.68,6.53 0.95,0 2.68,-0.44 2.68,-3.33 0,-1.54 -0.84,-4.89 -2.68,-11.86 -0.8,-3.09 -2.54,-5.18 -4.74,-5.18 -0.3,0 -1.44,0 -2.48,0.65 1.25,0.24 2.34,1.28 2.34,2.69 0,1.34 -1.09,1.73 -1.84,1.73 -1.5,0 -2.75,-1.29 -2.75,-2.89 0,-2.28 2.5,-3.28 4.68,-3.28 3.3,0 5.08,3.49 5.24,3.78 0.59,-1.84 2.39,-3.78 5.37,-3.78 5.14,0 7.99,6.42 7.99,7.67 0,0.5 -0.45,0.5 -0.61,0.5 -0.44,0 -0.55,-0.2 -0.64,-0.54 -1.64,-5.33 -5.03,-6.53 -6.63,-6.53 -1.95,0 -2.75,1.59 -2.75,3.29 0,1.1 0.3,2.19 0.86,4.38 z"
           id="path4743"
           style="fill:#000000;stroke-width:0" /></g>    </g>
    <g
       transform="matrix(0.77235756,0,0,0.7007887,-130.39322,106.14351)"
       id="g4817">
      <g
         transform="matrix(1.0629921,0,0,-1.0629921,-186.02362,789.27165)"
         id="g4819"
         xml:space="preserve"
         style="font-style:normal;font-variant:normal;font-weight:normal;font-stretch:normal;letter-spacing:normal;word-spacing:normal;text-anchor:start;fill:none;stroke:#000000;stroke-linecap:butt;stroke-linejoin:miter;stroke-miterlimit:10.43299961;stroke-opacity:1;stroke-dasharray:none;stroke-dashoffset:0"><path
           d="m 479.74,425.18 0.01,0.04 0.01,0.03 0.01,0.06 0.02,0.05 0.01,0.06 0.01,0.05 0.02,0.04 0.01,0.05 0.01,0.04 0.01,0.04 0,0.04 0.01,0.04 0.01,0.04 0.01,0.03 0,0.03 0.01,0.03 0,0.03 0.01,0.03 0,0.03 0.01,0.05 0,0.06 0,0.05 0,0.05 0.01,0.05 0,0.03 0,0.03 0,0.03 0,0.03 c 0,0.91 -0.69,1.35 -1.44,1.35 -0.5,0 -1.3,-0.3 -1.75,-1.05 -0.1,-0.25 -0.5,-1.78 -0.69,-2.69 -0.36,-1.29 -0.7,-2.64 -1,-3.98 l -2.25,-8.97 c -0.19,-0.75 -2.33,-4.23 -5.62,-4.23 -2.54,0 -3.1,2.18 -3.1,4.03 0,2.29 0.86,5.39 2.55,9.76 0.8,2.05 1,2.6 1,3.6 0,2.23 -1.59,4.07 -4.09,4.07 -4.74,0 -6.58,-7.21 -6.58,-7.67 0,-0.5 0.5,-0.5 0.61,-0.5 0.5,0 0.54,0.11 0.79,0.91 1.35,4.69 3.33,6.17 5.03,6.17 0.4,0 1.25,0 1.25,-1.59 0,-1.25 -0.5,-2.53 -0.85,-3.49 -1.99,-5.28 -2.9,-8.12 -2.9,-10.47 0,-4.42 3.15,-5.92 6.08,-5.92 1.96,0 3.64,0.85 5.03,2.24 -0.64,-2.58 -1.23,-5.03 -3.23,-7.68 -1.3,-1.68 -3.19,-3.14 -5.48,-3.14 -0.69,0 -2.94,0.16 -3.79,2.1 0.8,0 1.46,0 2.14,0.61 0.5,0.43 1,1.09 1,2.03 0,1.55 -1.34,1.75 -1.84,1.75 -1.14,0 -2.8,-0.8 -2.8,-3.24 0,-2.5 2.21,-4.34 5.29,-4.34 5.14,0 10.26,4.55 11.67,10.17 z"
           id="path4821"
           style="fill:#000000;stroke-width:0" /></g>    </g>
    <g
       transform="matrix(0.77235756,0,0,0.7007887,52.612349,-77.235033)"
       id="g4901"
       style="fill:#000000">
      <g
         transform="matrix(1.0629921,0,0,-1.0629921,-186.02362,789.27165)"
         id="g4903"
         xml:space="preserve"
         style="font-style:normal;font-variant:normal;font-weight:normal;font-stretch:normal;letter-spacing:normal;word-spacing:normal;text-anchor:start;fill:#000000;stroke:#000000;stroke-linecap:butt;stroke-linejoin:miter;stroke-miterlimit:10.43299961;stroke-opacity:1;stroke-dasharray:none;stroke-dashoffset:0"><path
           d="m 462.14,410.34 0.25,0.27 0.24,0.25 0.24,0.25 0.23,0.24 0.22,0.23 0.22,0.22 0.21,0.22 0.2,0.21 0.2,0.2 0.2,0.19 0.19,0.19 0.19,0.19 0.18,0.17 0.19,0.18 0.35,0.33 0.34,0.32 0.33,0.3 0.33,0.29 0.32,0.29 0.65,0.56 0.33,0.29 0.33,0.28 c 0,0.05 3.08,2.69 4.88,4.49 4.73,4.64 5.83,7.03 5.83,7.21 0,0.5 -0.46,0.5 -0.55,0.5 -0.35,0 -0.5,-0.09 -0.75,-0.54 -1.49,-2.39 -2.53,-3.19 -3.74,-3.19 -1.2,0 -1.79,0.75 -2.54,1.59 -0.94,1.16 -1.78,2.14 -3.44,2.14 -3.73,0 -6.02,-4.62 -6.02,-5.67 0,-0.25 0.14,-0.54 0.6,-0.54 0.45,0 0.54,0.25 0.64,0.54 0.95,2.3 3.84,2.35 4.23,2.35 1.05,0 2,-0.36 3.14,-0.75 2,-0.75 2.55,-0.75 3.85,-0.75 -1.8,-2.14 -5.99,-5.74 -6.92,-6.53 l -4.49,-4.18 c -3.39,-3.34 -5.14,-6.18 -5.14,-6.53 0,-0.5 0.5,-0.5 0.59,-0.5 0.41,0 0.5,0.1 0.8,0.64 1.16,1.75 2.64,3.1 4.24,3.1 1.15,0 1.65,-0.46 2.89,-1.89 0.86,-1.05 1.75,-1.85 3.18,-1.85 4.94,0 7.83,6.33 7.83,7.67 0,0.25 -0.2,0.5 -0.59,0.5 -0.46,0 -0.55,-0.29 -0.71,-0.65 -1.14,-3.24 -4.32,-4.17 -5.98,-4.17 -0.98,0 -1.89,0.29 -2.94,0.64 -1.68,0.64 -2.43,0.84 -3.48,0.84 -0.1,0 -0.89,0 -1.35,-0.14 z"
           id="path4905"
           style="fill:#000000;stroke-width:0" /></g>    </g>
    <g
       transform="matrix(0.77235756,0,0,0.7007887,214.82266,-5.5893512)"
       id="g4991">
      <g
         transform="matrix(1.0629921,0,0,-1.0629921,-186.02362,789.27165)"
         id="g4993"
         xml:space="preserve"
         style="font-style:normal;font-variant:normal;font-weight:normal;font-stretch:normal;letter-spacing:normal;word-spacing:normal;text-anchor:start;fill:none;stroke:#000000;stroke-linecap:butt;stroke-linejoin:miter;stroke-miterlimit:10.43299961;stroke-opacity:1;stroke-dasharray:none;stroke-dashoffset:0"><polygon
           points="474.68,432.61 476.09,434.45 468.26,440.78 460.45,434.5 461.84,432.56 468.26,436.68 "
           id="polygon4995"
           style="fill:#000000;stroke-width:0" /><path
           d="m 477.89,426.18 0.04,0.05 0.03,0.05 0.04,0.05 0.03,0.04 0.03,0.04 0.03,0.04 0.02,0.04 0.03,0.03 0.02,0.04 0.02,0.03 0.02,0.03 0.02,0.03 0.02,0.03 0.02,0.03 0.02,0.03 0.01,0.03 0.01,0.02 0.02,0.03 0.01,0.03 0.01,0.03 0.01,0.02 0.01,0.03 0.01,0.03 0,0.03 0.01,0.03 0,0.03 0.01,0.04 0,0.03 0,0.04 0,0.04 0,0.04 0,0.04 c 0,1.04 -0.7,1.04 -1.59,1.04 h -18.3 l -0.59,-8.71 h 2.34 c 0.3,5.12 1.85,6.92 6.97,6.92 h 4.24 l -13.89,-18.14 c -0.46,-0.55 -0.46,-0.64 -0.46,-1.1 0,-1.09 0.64,-1.09 1.6,-1.09 h 18.93 l 0.9,10.06 h -2.35 c -0.44,-5.03 -1.23,-8.06 -7.81,-8.06 h -4.3 z"
           id="path4997"
           style="fill:#000000;stroke-width:0" /></g>    </g>
    <g
       transform="matrix(0.77235756,0,0,0.7007887,51.021921,206.02565)"
       id="g5091">
      <g
         transform="matrix(1.0629921,0,0,-1.0629921,-186.02362,789.27165)"
         id="g5093"
         xml:space="preserve"
         style="font-style:normal;font-variant:normal;font-weight:normal;font-stretch:normal;letter-spacing:normal;word-spacing:normal;text-anchor:start;fill:none;stroke:#000000;stroke-linecap:butt;stroke-linejoin:miter;stroke-miterlimit:10.43299961;stroke-opacity:1;stroke-dasharray:none;stroke-dashoffset:0"><polygon
           points="477.44,432.61 478.84,434.45 471.02,440.78 463.2,434.5 464.59,432.56 471.02,436.68 "
           id="polygon5095"
           style="fill:#000000;stroke-width:0" /><path
           d="m 480.72,424.93 0.07,0.13 0.06,0.12 0.04,0.06 0.03,0.05 0.04,0.05 0.04,0.05 0.05,0.05 0.05,0.05 0.05,0.04 0.06,0.04 0.06,0.04 0.07,0.04 0.08,0.04 0.09,0.03 0.09,0.03 0.1,0.03 0.12,0.03 0.12,0.02 0.13,0.03 0.07,0.01 0.07,0.01 0.08,0.01 0.08,0.01 0.08,0.01 0.09,0.01 0.09,0 0.09,0.01 0.1,0.01 0.1,0 0.1,0.01 0.11,0 0.11,0.01 0.11,0 0.12,0.01 0.12,0 0.13,0 0.13,0.01 0.13,0 0.14,0 0.14,0 0.15,0 v 2.34 c -1.19,-0.11 -2.69,-0.15 -3.94,-0.15 -1.23,0 -3.48,0.11 -4.53,0.15 v -2.34 c 0.11,0 2.35,0 2.35,-0.59 0,-0.07 -0.21,-0.55 -0.25,-0.61 l -5.72,-12.25 -6.33,13.45 h 2.69 v 2.34 c -1.64,-0.11 -6.13,-0.15 -6.19,-0.15 -1.39,0 -3.63,0.11 -5.67,0.15 v -2.34 H 460 l 9.32,-19.78 -1.14,-2.39 c -1.1,-2.39 -2.69,-5.78 -6.24,-5.78 -0.69,0 -0.8,0.04 -1.19,0.2 0.44,0.2 1.6,0.89 1.6,2.64 0,1.64 -1.21,2.84 -2.89,2.84 -1.39,0 -2.85,-0.95 -2.85,-2.89 0,-2.54 2.35,-4.59 5.33,-4.59 3.85,0 6.74,3.09 8.08,5.94 z"
           id="path5097"
           style="fill:#000000;stroke-width:0" /></g>    </g>
    <g
       transform="matrix(0.77235756,0,0,0.7007887,55.095378,111.18269)"
       id="g5199">
      <g
         transform="matrix(1.0629921,0,0,-1.0629921,-186.02362,789.27165)"
         id="g5201"
         xml:space="preserve"
         style="font-style:normal;font-variant:normal;font-weight:normal;font-stretch:normal;letter-spacing:normal;word-spacing:normal;text-anchor:start;fill:none;stroke:#000000;stroke-linecap:butt;stroke-linejoin:miter;stroke-miterlimit:10.43299961;stroke-opacity:1;stroke-dasharray:none;stroke-dashoffset:0"><polygon
           points="477.08,432.61 478.48,434.45 470.66,440.78 462.84,434.5 464.23,432.56 470.66,436.68 "
           id="polygon5203"
           style="fill:#000000;stroke-width:0" /><path
           d="m 472.75,418.45 5.83,6.48 c 0.66,0.71 0.96,1.05 5.1,1.05 v 2.34 c -1.75,-0.11 -4.35,-0.15 -4.6,-0.15 -1.25,0 -3.73,0.11 -5.12,0.15 v -2.34 c 0.68,0 1.29,-0.11 1.89,-0.45 -0.21,-0.3 -0.21,-0.39 -0.41,-0.6 l -4.17,-4.68 -4.89,5.73 h 2 v 2.34 c -1.3,-0.04 -4.44,-0.15 -6.03,-0.15 -1.6,0 -3.85,0.11 -5.49,0.15 v -2.34 h 3.53 l 7.79,-9.17 -6.54,-7.33 c -0.84,-0.94 -2.64,-0.94 -5.03,-0.94 v -2.34 c 1.75,0.09 4.35,0.16 4.58,0.16 1.25,0 4.14,-0.11 5.14,-0.16 v 2.34 c -0.89,0 -1.84,0.25 -1.84,0.55 0,0.05 0,0.09 0.34,0.5 l 4.85,5.42 5.46,-6.47 h -1.93 v -2.34 c 1.29,0.05 4.33,0.16 5.98,0.16 1.6,0 3.83,-0.11 5.47,-0.16 v 2.34 h -3.53 z"
           id="path5205"
           style="fill:#000000;stroke-width:0" /></g>    </g>
    <g
       transform="matrix(0.77235756,0,0,0.7007887,-13.159737,166.91602)"
       id="g5315">
      <g
         transform="matrix(1.0629921,0,0,-1.0629921,-186.02362,789.27165)"
         id="g5317"
         xml:space="preserve"
         style="font-style:normal;font-variant:normal;font-weight:normal;font-stretch:normal;letter-spacing:normal;word-spacing:normal;text-anchor:start;fill:none;stroke:#000000;stroke-linecap:butt;stroke-linejoin:miter;stroke-miterlimit:10.43299961;stroke-opacity:1;stroke-dasharray:none;stroke-dashoffset:0"><path
           d="m 460.64,425.98 v -13.66 c 0,-5.32 4.35,-6.42 7.88,-6.42 3.8,0 6.03,2.85 6.03,6.47 v 2.64 h -2.34 v -2.53 c 0,-3.39 -1.6,-4.59 -2.99,-4.59 -2.89,0 -2.89,3.18 -2.89,4.34 v 13.75 h 7.27 v 2.34 h -7.27 v 9.52 h -2.34 c -0.05,-4.98 -2.49,-9.92 -7.42,-10.06 v -1.8 z"
           id="path5319"
           style="fill:#000000;stroke-width:0" /><path
           d="m 491.61,407.2 4.81,4.84 c 0.83,0.24 1.73,0.24 3.23,0.24 v 1.95 c -1.11,-0.11 -2.26,-0.14 -3.37,-0.14 -1.19,0 -3.6,0.11 -3.88,0.14 v -1.95 c 0.46,0 0.71,-0.07 0.94,-0.21 l -3.27,-3.31 -3.39,3.52 h 0.96 v 1.95 c -0.22,0 -2.97,-0.14 -4.44,-0.14 -1.31,0 -2.61,0.03 -3.94,0.14 v -1.95 h 2.63 l 5.7,-5.96 -5.02,-5.04 c -0.45,-0.42 -0.48,-0.46 -1.56,-0.53 -0.56,-0.04 -1.78,-0.04 -1.95,-0.04 v -1.95 c 1.11,0.11 2.26,0.14 3.37,0.14 0.96,0 3.43,-0.11 3.88,-0.14 v 1.95 c -0.56,0 -0.7,0.07 -0.94,0.24 l 3.77,3.76 3.86,-4 h -0.91 v -1.95 c 0.03,0 2.83,0.14 4.42,0.14 1.3,0 2.63,-0.03 3.91,-0.14 v 1.95 h -2.58 z"
           id="path5321"
           style="fill:#000000;stroke-width:0" /></g>    </g>
    <g
       transform="matrix(0.77235756,0,0,0.7007887,32.297127,333.59119)"
       id="g5439">
      <g
         transform="matrix(1.0629921,0,0,-1.0629921,-186.02362,789.27165)"
         id="g5441"
         xml:space="preserve"
         style="font-style:normal;font-variant:normal;font-weight:normal;font-stretch:normal;letter-spacing:normal;word-spacing:normal;text-anchor:start;fill:none;stroke:#000000;stroke-linecap:butt;stroke-linejoin:miter;stroke-miterlimit:10.43299961;stroke-opacity:1;stroke-dasharray:none;stroke-dashoffset:0"><path
           d="m 460.64,425.98 v -13.66 c 0,-5.32 4.35,-6.42 7.88,-6.42 3.8,0 6.03,2.85 6.03,6.47 v 2.64 h -2.34 v -2.53 c 0,-3.39 -1.6,-4.59 -2.99,-4.59 -2.89,0 -2.89,3.18 -2.89,4.34 v 13.75 h 7.27 v 2.34 h -7.27 v 9.52 h -2.34 c -0.05,-4.98 -2.49,-9.92 -7.42,-10.06 v -1.8 z"
           id="path5443"
           style="fill:#000000;stroke-width:0" /><path
           d="m 497.73,411.62 0.03,0.05 0.02,0.04 0.02,0.04 0.03,0.03 0.02,0.04 0.02,0.03 0.02,0.03 0.02,0.03 0.02,0.02 0.02,0.03 0.02,0.02 0.02,0.02 0.02,0.02 0.03,0.02 0.02,0.02 0.02,0.01 0.03,0.02 0.03,0.01 0.03,0.02 0.03,0.01 0.03,0.01 0.04,0.01 0.03,0.01 0.04,0.01 0.05,0.01 0.04,0.01 0.05,0.01 0.05,0.01 0.06,0.01 0.03,0 0.03,0.01 0.03,0 0.03,0.01 0.03,0 0.04,0.01 c 0.42,0.03 1.43,0.03 1.58,0.03 v 1.95 c -0.99,-0.06 -1.96,-0.14 -2.94,-0.14 -1.05,0 -2.41,0.03 -3.44,0.14 v -1.95 c 0.83,0 0.97,-0.03 1.48,-0.21 l -4.48,-8.78 -4.81,8.99 h 1.61 v 1.95 c -0.11,0 -2.94,-0.14 -4.58,-0.14 -1.56,0 -4,0.14 -4.11,0.14 v -1.95 h 2.3 l 7.22,-13.52 c -0.21,-0.45 -1.25,-2.47 -1.36,-2.64 -1.14,-2.09 -3.04,-2.72 -4.25,-2.72 -0.32,0 -0.38,0 -0.52,0.03 0.59,0.43 0.91,1.08 0.91,1.85 0,1.5 -1.13,2.26 -2.27,2.26 -1.16,0 -2.26,-0.76 -2.26,-2.26 0,-1.96 1.81,-3.49 4.1,-3.49 2.58,0 5.3,1.47 6.86,4.5 z"
           id="path5445"
           style="fill:#000000;stroke-width:0" /></g>    </g>
    <g
       transform="matrix(0.77235756,0,0,0.7007887,170.68803,-77.540893)"
       id="g5571">
      <g
         transform="matrix(1.0629921,0,0,-1.0629921,-186.02362,789.27165)"
         id="g5573"
         xml:space="preserve"
         style="font-style:normal;font-variant:normal;font-weight:normal;font-stretch:normal;letter-spacing:normal;word-spacing:normal;text-anchor:start;fill:none;stroke:#000000;stroke-linecap:butt;stroke-linejoin:miter;stroke-miterlimit:10.43299961;stroke-opacity:1;stroke-dasharray:none;stroke-dashoffset:0"><path
           d="m 460.64,425.98 v -13.66 c 0,-5.32 4.35,-6.42 7.88,-6.42 3.8,0 6.03,2.85 6.03,6.47 v 2.64 h -2.34 v -2.53 c 0,-3.39 -1.6,-4.59 -2.99,-4.59 -2.89,0 -2.89,3.18 -2.89,4.34 v 13.75 h 7.27 v 2.34 h -7.27 v 9.52 h -2.34 c -0.05,-4.98 -2.49,-9.92 -7.42,-10.06 v -1.8 z"
           id="path5575"
           style="fill:#000000;stroke-width:0" /><path
           d="m 495.4,412.45 0.03,0.04 0.03,0.03 0.03,0.03 0.03,0.04 0.02,0.03 0.02,0.03 0.02,0.03 0.02,0.03 0.02,0.03 0.01,0.03 0.02,0.03 0.01,0.02 0.01,0.03 0.01,0.03 0.01,0.02 0.01,0.03 0.01,0.02 0.01,0.03 0,0.02 0.01,0.03 0,0.02 0.01,0.03 0,0.04 0,0.05 0.01,0.05 0,0.05 0,0.05 c 0,0.91 -0.6,0.91 -1.22,0.91 h -14.22 l -0.49,-6.12 h 2.21 c 0.26,3.75 1.87,4.53 5.11,4.53 h 2.9 l -10.39,-11.96 c -0.42,-0.45 -0.42,-0.53 -0.42,-0.95 0,-0.97 0.56,-0.97 1.22,-0.97 h 14.75 l 0.69,7.08 h -2.19 c -0.36,-3.77 -1.47,-5.3 -5.58,-5.3 h -3.14 z"
           id="path5577"
           style="fill:#000000;stroke-width:0" /></g>    </g>
    <g
       transform="matrix(0.86311498,0,0,0.8232725,276.33615,260.54457)"
       id="g5711">
      <g
         transform="matrix(1.0629921,0,0,-1.0629921,-186.02362,789.27165)"
         id="g5713"
         xml:space="preserve"
         style="font-style:normal;font-variant:normal;font-weight:normal;font-stretch:normal;letter-spacing:normal;word-spacing:normal;text-anchor:start;fill:none;stroke:#000000;stroke-linecap:butt;stroke-linejoin:miter;stroke-miterlimit:10.43299961;stroke-opacity:1;stroke-dasharray:none;stroke-dashoffset:0"><path
           d="m 460.64,425.98 v -13.66 c 0,-5.32 4.35,-6.42 7.88,-6.42 3.8,0 6.03,2.85 6.03,6.47 v 2.64 h -2.34 v -2.53 c 0,-3.39 -1.6,-4.59 -2.99,-4.59 -2.89,0 -2.89,3.18 -2.89,4.34 v 13.75 h 7.27 v 2.34 h -7.27 v 9.52 h -2.34 c -0.05,-4.98 -2.49,-9.92 -7.42,-10.06 v -1.8 z"
           id="path5715"
           style="fill:#000000;stroke-width:0" /><path
           d="m 499.17,409.25 0,0.19 -0.01,0.2 -0.01,0.19 -0.01,0.18 -0.02,0.18 -0.02,0.18 -0.06,0.33 -0.06,0.32 -0.09,0.3 -0.09,0.29 -0.11,0.26 -0.12,0.25 -0.14,0.24 -0.14,0.22 -0.16,0.2 -0.17,0.19 -0.18,0.18 -0.19,0.16 -0.2,0.15 -0.21,0.14 -0.22,0.12 -0.22,0.11 -0.24,0.11 -0.24,0.09 -0.25,0.08 -0.26,0.07 -0.26,0.06 -0.27,0.05 -0.27,0.05 -0.29,0.03 -0.28,0.03 -0.29,0.02 -0.29,0.02 -0.3,0.01 -0.3,0 c -4.2,0 -6.16,-2.52 -6.83,-3.63 v 3.63 l -6.3,-0.28 v -1.96 c 2.05,0 2.33,0 2.33,-1.35 v -10.15 h -2.33 v -1.95 c 0.04,0 2.86,0.14 4.54,0.14 1.7,0 4.53,-0.14 4.56,-0.14 v 1.95 h -2.35 v 6.72 c 0,4.05 3.63,5.41 5.72,5.41 1.53,0 2.21,-0.8 2.21,-3.31 v -8.82 h -2.35 v -1.95 c 0.03,0 2.86,0.14 4.53,0.14 1.71,0 4.53,-0.14 4.57,-0.14 v 1.95 h -2.33 z"
           id="path5717"
           style="fill:#000000;stroke-width:0" /></g>    </g>
    <g
       transform="matrix(0.72931819,0,0,0.76831058,310.7543,200.57789)"
       id="g5859">
      <g
         transform="matrix(1.0629921,0,0,-1.0629921,-186.02362,789.27165)"
         id="g5861"
         xml:space="preserve"
         style="font-style:normal;font-variant:normal;font-weight:normal;font-stretch:normal;letter-spacing:normal;word-spacing:normal;text-anchor:start;fill:none;stroke:#000000;stroke-linecap:butt;stroke-linejoin:miter;stroke-miterlimit:10.43299961;stroke-opacity:1;stroke-dasharray:none;stroke-dashoffset:0"><polygon
           points="479.32,434.45 471.5,440.78 463.68,434.5 465.07,432.56 471.5,436.68 477.92,432.61 "
           id="polygon5863"
           style="fill:#000000;stroke-width:0" /><path
           d="m 461.19,423.93 v -15.39 h -3.44 v -2.34 c 1.41,0.05 4.39,0.16 6.29,0.16 1.95,0 4.89,-0.11 6.28,-0.16 v 2.34 h -3.44 v 10.41 c 0,5.44 4.28,7.87 7.42,7.87 1.7,0 2.74,-1.04 2.74,-4.82 v -13.46 h -3.44 v -2.34 c 1.4,0.05 4.39,0.16 6.28,0.16 1.95,0 4.89,-0.11 6.28,-0.16 v 2.34 h -3.44 v 12.91 c 0,5.23 -2.68,7.17 -7.67,7.17 -4.78,0 -7.42,-2.84 -8.72,-5.39 v 5.39 l -8.58,-0.41 v -2.34 c 3.1,0 3.44,0 3.44,-1.94 z"
           id="path5865"
           style="fill:#000000;stroke-width:0" /></g>    </g>
    <g
       transform="matrix(0.69521582,0,0,0.74283929,341.47199,156.87864)"
       id="g6015">
      <g
         transform="matrix(1.0629921,0,0,-1.0629921,-186.02362,789.27165)"
         id="g6017"
         xml:space="preserve"
         style="font-style:normal;font-variant:normal;font-weight:normal;font-stretch:normal;letter-spacing:normal;word-spacing:normal;text-anchor:start;fill:none;stroke:#000000;stroke-linecap:butt;stroke-linejoin:miter;stroke-miterlimit:10.43299961;stroke-opacity:1;stroke-dasharray:none;stroke-dashoffset:0"><path
           d="m 481.22,440.23 0,0 0,0.01 0,0 0,0.01 0,0.02 0,0.01 0,0.02 0,0.02 -0.01,0.02 0,0.02 -0.01,0.02 0,0.02 -0.01,0.02 -0.01,0.03 -0.01,0.02 -0.01,0.03 -0.02,0.02 -0.01,0.03 -0.02,0.02 -0.02,0.02 -0.02,0.03 -0.02,0.01 -0.01,0.01 -0.01,0.01 -0.02,0.01 -0.01,0.01 -0.02,0.01 -0.01,0.01 -0.02,0.01 -0.01,0.01 -0.02,0.01 -0.02,0 -0.02,0.01 -0.02,0.01 -0.02,0 -0.02,0.01 -0.03,0.01 -0.02,0 -0.02,0 -0.03,0.01 -0.03,0 -0.02,0 -0.03,0.01 -0.03,0 -0.03,0 c -0.75,0 -5.48,-0.46 -6.33,-0.55 -0.4,-0.05 -0.7,-0.3 -0.7,-0.95 0,-0.6 0.45,-0.6 1.2,-0.6 2.39,0 2.49,-0.34 2.49,-0.84 l -0.14,-1 -3,-11.81 c -0.89,1.84 -2.35,3.18 -4.58,3.18 l 0.05,-1.09 c 3.23,0 3.93,-4.08 3.93,-4.37 0,-0.32 -0.09,-0.61 -0.14,-0.86 l -2.5,-9.77 c -0.25,-0.89 -0.25,-0.98 -1,-1.84 -2.18,-2.74 -4.23,-3.53 -5.62,-3.53 -2.49,0 -3.19,2.73 -3.19,4.68 0,2.49 1.59,8.61 2.74,10.91 1.54,2.94 3.79,4.78 5.78,4.78 l -0.05,1.09 c -5.83,0 -12,-7.31 -12,-14.59 0,-4.69 2.73,-7.97 6.62,-7.97 0.99,0 3.49,0.21 6.47,3.74 0.41,-2.1 2.14,-3.74 4.53,-3.74 1.75,0 2.9,1.14 3.69,2.74 0.85,1.79 1.5,4.84 1.5,4.93 0,0.5 -0.45,0.5 -0.59,0.5 -0.5,0 -0.55,-0.2 -0.7,-0.9 -0.85,-3.24 -1.75,-6.17 -3.79,-6.17 -1.34,0 -1.5,1.29 -1.5,2.29 0,1.19 0.1,1.55 0.3,2.39 z"
           id="path6019"
           style="fill:#000000;stroke-width:0" /><path
           d="m 513.58,440.82 0,0.02 0,0.02 -0.01,0.01 0,0.02 0,0.02 0,0.02 -0.01,0.02 -0.01,0.02 0,0.02 -0.01,0.02 -0.01,0.02 -0.01,0.02 -0.01,0.02 -0.01,0.02 -0.02,0.02 -0.01,0.02 -0.02,0.02 -0.01,0.02 -0.02,0.02 -0.02,0.02 -0.03,0.01 -0.02,0.02 -0.02,0.01 -0.03,0.02 -0.03,0.01 -0.03,0.01 -0.01,0.01 -0.02,0 -0.01,0.01 -0.02,0 -0.02,0 -0.01,0.01 -0.02,0 -0.02,0 -0.02,0 -0.02,0 -0.02,0 -0.02,0 c -0.25,0 -0.31,-0.04 -0.91,-0.75 l -2.39,-2.84 c -1.29,2.34 -3.89,3.59 -7.12,3.59 -6.33,0 -12.3,-5.73 -12.3,-11.76 0,-4.03 2.64,-6.33 5.17,-7.06 l 5.33,-1.41 c 1.85,-0.44 4.6,-1.19 4.6,-5.28 0,-4.49 -4.1,-9.16 -8.97,-9.16 -3.19,0 -8.72,1.1 -8.72,7.27 0,1.2 0.25,2.39 0.3,2.69 0.04,0.2 0.09,0.25 0.09,0.35 0,0.5 -0.34,0.55 -0.59,0.55 -0.25,0 -0.35,-0.05 -0.5,-0.2 -0.21,-0.2 -2.99,-11.56 -2.99,-11.7 0,-0.3 0.25,-0.5 0.55,-0.5 0.25,0 0.3,0.04 0.89,0.75 l 2.45,2.82 c 2.14,-2.89 5.52,-3.57 8.41,-3.57 6.78,0 12.65,6.62 12.65,12.79 0,3.44 -1.68,5.14 -2.43,5.83 -1.14,1.16 -1.89,1.34 -6.33,2.5 -1.1,0.3 -2.89,0.8 -3.34,0.89 -1.35,0.45 -3.04,1.89 -3.04,4.53 0,4.05 3.99,8.28 8.72,8.28 4.14,0 7.17,-2.14 7.17,-7.73 0,-1.59 -0.2,-2.49 -0.2,-2.78 0,-0.05 0,-0.5 0.61,-0.5 0.5,0 0.55,0.15 0.74,1 z"
           id="path6021"
           style="fill:#000000;stroke-width:0" /></g>    </g>
    <g
       transform="matrix(0.69521582,0,0,0.74283929,111.73478,8.5893751)"
       id="g6179">
      <g
         transform="matrix(1.0629921,0,0,-1.0629921,-186.02362,789.27165)"
         id="g6181"
         xml:space="preserve"
         style="font-style:normal;font-variant:normal;font-weight:normal;font-stretch:normal;letter-spacing:normal;word-spacing:normal;text-anchor:start;fill:none;stroke:#000000;stroke-linecap:butt;stroke-linejoin:miter;stroke-miterlimit:10.43299961;stroke-opacity:1;stroke-dasharray:none;stroke-dashoffset:0"><path
           d="m 481.22,440.23 0,0 0,0.01 0,0 0,0.01 0,0.02 0,0.01 0,0.02 0,0.02 -0.01,0.02 0,0.02 -0.01,0.02 0,0.02 -0.01,0.02 -0.01,0.03 -0.01,0.02 -0.01,0.03 -0.02,0.02 -0.01,0.03 -0.02,0.02 -0.02,0.02 -0.02,0.03 -0.02,0.01 -0.01,0.01 -0.01,0.01 -0.02,0.01 -0.01,0.01 -0.02,0.01 -0.01,0.01 -0.02,0.01 -0.01,0.01 -0.02,0.01 -0.02,0 -0.02,0.01 -0.02,0.01 -0.02,0 -0.02,0.01 -0.03,0.01 -0.02,0 -0.02,0 -0.03,0.01 -0.03,0 -0.02,0 -0.03,0.01 -0.03,0 -0.03,0 c -0.75,0 -5.48,-0.46 -6.33,-0.55 -0.4,-0.05 -0.7,-0.3 -0.7,-0.95 0,-0.6 0.45,-0.6 1.2,-0.6 2.39,0 2.49,-0.34 2.49,-0.84 l -0.14,-1 -3,-11.81 c -0.89,1.84 -2.35,3.18 -4.58,3.18 l 0.05,-1.09 c 3.23,0 3.93,-4.08 3.93,-4.37 0,-0.32 -0.09,-0.61 -0.14,-0.86 l -2.5,-9.77 c -0.25,-0.89 -0.25,-0.98 -1,-1.84 -2.18,-2.74 -4.23,-3.53 -5.62,-3.53 -2.49,0 -3.19,2.73 -3.19,4.68 0,2.49 1.59,8.61 2.74,10.91 1.54,2.94 3.79,4.78 5.78,4.78 l -0.05,1.09 c -5.83,0 -12,-7.31 -12,-14.59 0,-4.69 2.73,-7.97 6.62,-7.97 0.99,0 3.49,0.21 6.47,3.74 0.41,-2.1 2.14,-3.74 4.53,-3.74 1.75,0 2.9,1.14 3.69,2.74 0.85,1.79 1.5,4.84 1.5,4.93 0,0.5 -0.45,0.5 -0.59,0.5 -0.5,0 -0.55,-0.2 -0.7,-0.9 -0.85,-3.24 -1.75,-6.17 -3.79,-6.17 -1.34,0 -1.5,1.29 -1.5,2.29 0,1.19 0.1,1.55 0.3,2.39 z"
           id="path6183"
           style="fill:#000000;stroke-width:0" /><path
           d="m 513.58,440.82 0,0.02 0,0.02 -0.01,0.01 0,0.02 0,0.02 0,0.02 -0.01,0.02 -0.01,0.02 0,0.02 -0.01,0.02 -0.01,0.02 -0.01,0.02 -0.01,0.02 -0.01,0.02 -0.02,0.02 -0.01,0.02 -0.02,0.02 -0.01,0.02 -0.02,0.02 -0.02,0.02 -0.03,0.01 -0.02,0.02 -0.02,0.01 -0.03,0.02 -0.03,0.01 -0.03,0.01 -0.01,0.01 -0.02,0 -0.01,0.01 -0.02,0 -0.02,0 -0.01,0.01 -0.02,0 -0.02,0 -0.02,0 -0.02,0 -0.02,0 -0.02,0 c -0.25,0 -0.31,-0.04 -0.91,-0.75 l -2.39,-2.84 c -1.29,2.34 -3.89,3.59 -7.12,3.59 -6.33,0 -12.3,-5.73 -12.3,-11.76 0,-4.03 2.64,-6.33 5.17,-7.06 l 5.33,-1.41 c 1.85,-0.44 4.6,-1.19 4.6,-5.28 0,-4.49 -4.1,-9.16 -8.97,-9.16 -3.19,0 -8.72,1.1 -8.72,7.27 0,1.2 0.25,2.39 0.3,2.69 0.04,0.2 0.09,0.25 0.09,0.35 0,0.5 -0.34,0.55 -0.59,0.55 -0.25,0 -0.35,-0.05 -0.5,-0.2 -0.21,-0.2 -2.99,-11.56 -2.99,-11.7 0,-0.3 0.25,-0.5 0.55,-0.5 0.25,0 0.3,0.04 0.89,0.75 l 2.45,2.82 c 2.14,-2.89 5.52,-3.57 8.41,-3.57 6.78,0 12.65,6.62 12.65,12.79 0,3.44 -1.68,5.14 -2.43,5.83 -1.14,1.16 -1.89,1.34 -6.33,2.5 -1.1,0.3 -2.89,0.8 -3.34,0.89 -1.35,0.45 -3.04,1.89 -3.04,4.53 0,4.05 3.99,8.28 8.72,8.28 4.14,0 7.17,-2.14 7.17,-7.73 0,-1.59 -0.2,-2.49 -0.2,-2.78 0,-0.05 0,-0.5 0.61,-0.5 0.5,0 0.55,0.15 0.74,1 z"
           id="path6185"
           style="fill:#000000;stroke-width:0" /><path
           d="m 520.71,402.45 -0.03,-0.11 -0.04,-0.12 -0.05,-0.12 -0.05,-0.12 -0.05,-0.12 -0.06,-0.13 -0.06,-0.13 -0.07,-0.12 -0.07,-0.13 -0.07,-0.13 -0.08,-0.13 -0.09,-0.12 -0.09,-0.13 -0.09,-0.12 -0.1,-0.12 -0.1,-0.12 -0.1,-0.12 -0.11,-0.11 -0.12,-0.1 -0.12,-0.1 -0.12,-0.1 -0.12,-0.09 -0.13,-0.08 -0.14,-0.08 -0.14,-0.07 -0.14,-0.06 -0.14,-0.05 -0.15,-0.05 -0.15,-0.04 -0.16,-0.02 -0.16,-0.02 -0.16,0 c -0.11,0 -1.16,0 -1.9,0.48 1.44,0.45 1.54,1.72 1.54,1.92 0,0.77 -0.6,1.3 -1.39,1.3 -0.97,0 -1.99,-0.84 -1.99,-2.14 0,-1.74 1.95,-2.53 3.66,-2.53 1.61,0 3.03,1 3.9,2.47 0.83,-1.85 2.75,-2.47 4.14,-2.47 4.02,0 6.14,4.34 6.14,5.33 0,0.45 -0.45,0.45 -0.56,0.45 -0.48,0 -0.51,-0.17 -0.65,-0.59 -0.74,-2.41 -2.83,-4.22 -4.79,-4.22 -1.39,0 -2.12,0.93 -2.12,2.26 0,0.91 0.84,4.08 1.81,7.96 0.71,2.67 2.27,3.54 3.42,3.54 0.07,0 1.14,0 1.88,-0.48 -1.11,-0.31 -1.53,-1.3 -1.53,-1.92 0,-0.77 0.59,-1.29 1.39,-1.29 0.81,0 1.95,0.66 1.95,2.13 0,1.95 -2.23,2.53 -3.62,2.53 -1.74,0 -3.14,-1.14 -3.91,-2.47 -0.62,1.44 -2.22,2.47 -4.17,2.47 -3.91,0 -6.14,-4.28 -6.14,-5.33 0,-0.45 0.5,-0.45 0.59,-0.45 0.45,0 0.49,0.14 0.67,0.59 0.86,2.72 3.07,4.22 4.77,4.22 1.16,0 2.09,-0.62 2.09,-2.29 0,-0.71 -0.42,-2.44 -0.73,-3.63 z"
           id="path6187"
           style="fill:#000000;stroke-width:0" /></g>    </g>
    <g
       transform="matrix(0.69521582,0,0,0.74283929,156.18149,338.90926)"
       id="g6355">
      <g
         transform="matrix(1.0629921,0,0,-1.0629921,-186.02362,789.27165)"
         id="g6357"
         xml:space="preserve"
         style="font-style:normal;font-variant:normal;font-weight:normal;font-stretch:normal;letter-spacing:normal;word-spacing:normal;text-anchor:start;fill:none;stroke:#000000;stroke-linecap:butt;stroke-linejoin:miter;stroke-miterlimit:10.43299961;stroke-opacity:1;stroke-dasharray:none;stroke-dashoffset:0"><path
           d="m 481.22,440.23 0,0 0,0.01 0,0 0,0.01 0,0.02 0,0.01 0,0.02 0,0.02 -0.01,0.02 0,0.02 -0.01,0.02 0,0.02 -0.01,0.02 -0.01,0.03 -0.01,0.02 -0.01,0.03 -0.02,0.02 -0.01,0.03 -0.02,0.02 -0.02,0.02 -0.02,0.03 -0.02,0.01 -0.01,0.01 -0.01,0.01 -0.02,0.01 -0.01,0.01 -0.02,0.01 -0.01,0.01 -0.02,0.01 -0.01,0.01 -0.02,0.01 -0.02,0 -0.02,0.01 -0.02,0.01 -0.02,0 -0.02,0.01 -0.03,0.01 -0.02,0 -0.02,0 -0.03,0.01 -0.03,0 -0.02,0 -0.03,0.01 -0.03,0 -0.03,0 c -0.75,0 -5.48,-0.46 -6.33,-0.55 -0.4,-0.05 -0.7,-0.3 -0.7,-0.95 0,-0.6 0.45,-0.6 1.2,-0.6 2.39,0 2.49,-0.34 2.49,-0.84 l -0.14,-1 -3,-11.81 c -0.89,1.84 -2.35,3.18 -4.58,3.18 l 0.05,-1.09 c 3.23,0 3.93,-4.08 3.93,-4.37 0,-0.32 -0.09,-0.61 -0.14,-0.86 l -2.5,-9.77 c -0.25,-0.89 -0.25,-0.98 -1,-1.84 -2.18,-2.74 -4.23,-3.53 -5.62,-3.53 -2.49,0 -3.19,2.73 -3.19,4.68 0,2.49 1.59,8.61 2.74,10.91 1.54,2.94 3.79,4.78 5.78,4.78 l -0.05,1.09 c -5.83,0 -12,-7.31 -12,-14.59 0,-4.69 2.73,-7.97 6.62,-7.97 0.99,0 3.49,0.21 6.47,3.74 0.41,-2.1 2.14,-3.74 4.53,-3.74 1.75,0 2.9,1.14 3.69,2.74 0.85,1.79 1.5,4.84 1.5,4.93 0,0.5 -0.45,0.5 -0.59,0.5 -0.5,0 -0.55,-0.2 -0.7,-0.9 -0.85,-3.24 -1.75,-6.17 -3.79,-6.17 -1.34,0 -1.5,1.29 -1.5,2.29 0,1.19 0.1,1.55 0.3,2.39 z"
           id="path6359"
           style="fill:#000000;stroke-width:0" /><path
           d="m 513.58,440.82 0,0.02 0,0.02 -0.01,0.01 0,0.02 0,0.02 0,0.02 -0.01,0.02 -0.01,0.02 0,0.02 -0.01,0.02 -0.01,0.02 -0.01,0.02 -0.01,0.02 -0.01,0.02 -0.02,0.02 -0.01,0.02 -0.02,0.02 -0.01,0.02 -0.02,0.02 -0.02,0.02 -0.03,0.01 -0.02,0.02 -0.02,0.01 -0.03,0.02 -0.03,0.01 -0.03,0.01 -0.01,0.01 -0.02,0 -0.01,0.01 -0.02,0 -0.02,0 -0.01,0.01 -0.02,0 -0.02,0 -0.02,0 -0.02,0 -0.02,0 -0.02,0 c -0.25,0 -0.31,-0.04 -0.91,-0.75 l -2.39,-2.84 c -1.29,2.34 -3.89,3.59 -7.12,3.59 -6.33,0 -12.3,-5.73 -12.3,-11.76 0,-4.03 2.64,-6.33 5.17,-7.06 l 5.33,-1.41 c 1.85,-0.44 4.6,-1.19 4.6,-5.28 0,-4.49 -4.1,-9.16 -8.97,-9.16 -3.19,0 -8.72,1.1 -8.72,7.27 0,1.2 0.25,2.39 0.3,2.69 0.04,0.2 0.09,0.25 0.09,0.35 0,0.5 -0.34,0.55 -0.59,0.55 -0.25,0 -0.35,-0.05 -0.5,-0.2 -0.21,-0.2 -2.99,-11.56 -2.99,-11.7 0,-0.3 0.25,-0.5 0.55,-0.5 0.25,0 0.3,0.04 0.89,0.75 l 2.45,2.82 c 2.14,-2.89 5.52,-3.57 8.41,-3.57 6.78,0 12.65,6.62 12.65,12.79 0,3.44 -1.68,5.14 -2.43,5.83 -1.14,1.16 -1.89,1.34 -6.33,2.5 -1.1,0.3 -2.89,0.8 -3.34,0.89 -1.35,0.45 -3.04,1.89 -3.04,4.53 0,4.05 3.99,8.28 8.72,8.28 4.14,0 7.17,-2.14 7.17,-7.73 0,-1.59 -0.2,-2.49 -0.2,-2.78 0,-0.05 0,-0.5 0.61,-0.5 0.5,0 0.55,0.15 0.74,1 z"
           id="path6361"
           style="fill:#000000;stroke-width:0" /><path
           d="m 531.41,411.9 0.01,0.02 0.01,0.03 0,0.02 0.01,0.02 0,0.02 0.01,0.02 0.01,0.04 0.01,0.03 0.01,0.03 0.01,0.04 0.01,0.03 0,0.02 0.01,0.03 0.01,0.03 0,0.02 0.01,0.02 0,0.02 0,0.02 0.01,0.02 0,0.02 0,0.02 0.01,0.02 0,0.02 0,0.03 0,0.03 0,0.04 0,0.03 0,0.02 0,0.02 0,0.02 0,0.02 c 0,0.69 -0.56,1.11 -1.15,1.11 -0.38,0 -1.05,-0.17 -1.42,-0.83 -0.11,-0.22 -0.39,-1.33 -0.57,-2.03 l -0.73,-2.89 c -0.2,-0.83 -1.28,-5.22 -1.39,-5.61 -0.03,0 -1.56,-3.03 -4.28,-3.03 -2.38,0 -2.38,2.26 -2.38,2.89 0,1.89 0.8,4.08 1.85,6.76 0.42,1.11 0.59,1.53 0.59,2.13 0,1.67 -1.42,2.95 -3.31,2.95 -3.52,0 -5.08,-4.73 -5.08,-5.33 0,-0.45 0.48,-0.45 0.59,-0.45 0.49,0 0.52,0.17 0.63,0.56 0.87,2.89 2.37,4.25 3.76,4.25 0.6,0 0.86,-0.39 0.86,-1.22 0,-0.79 -0.31,-1.56 -0.48,-2.01 -1.67,-4.25 -2.02,-5.55 -2.02,-7.08 0,-0.59 0,-2.23 1.36,-3.34 1.08,-0.91 2.55,-1.08 3.49,-1.08 1.39,0 2.64,0.51 3.79,1.56 -0.45,-1.92 -0.84,-3.37 -2.29,-5.12 -0.94,-1.08 -2.35,-2.22 -4.19,-2.22 -0.23,0 -1.88,0 -2.61,1.14 1.88,0.2 1.88,1.89 1.88,1.92 0,1.11 -1,1.31 -1.36,1.31 -0.86,0 -2.02,-0.69 -2.02,-2.3 0,-1.76 1.67,-3.06 4.14,-3.06 3.53,0 7.81,2.72 8.89,7.08 z"
           id="path6363"
           style="fill:#000000;stroke-width:0" /></g>    </g>
    <g
       transform="matrix(0.69521582,0,0,0.74283929,286.49117,-33.837032)"
       id="g6541">
      <g
         transform="matrix(1.0629921,0,0,-1.0629921,-186.02362,789.27165)"
         id="g6543"
         xml:space="preserve"
         style="font-style:normal;font-variant:normal;font-weight:normal;font-stretch:normal;letter-spacing:normal;word-spacing:normal;text-anchor:start;fill:none;stroke:#000000;stroke-linecap:butt;stroke-linejoin:miter;stroke-miterlimit:10.43299961;stroke-opacity:1;stroke-dasharray:none;stroke-dashoffset:0"><path
           d="m 481.22,440.23 0,0 0,0.01 0,0 0,0.01 0,0.02 0,0.01 0,0.02 0,0.02 -0.01,0.02 0,0.02 -0.01,0.02 0,0.02 -0.01,0.02 -0.01,0.03 -0.01,0.02 -0.01,0.03 -0.02,0.02 -0.01,0.03 -0.02,0.02 -0.02,0.02 -0.02,0.03 -0.02,0.01 -0.01,0.01 -0.01,0.01 -0.02,0.01 -0.01,0.01 -0.02,0.01 -0.01,0.01 -0.02,0.01 -0.01,0.01 -0.02,0.01 -0.02,0 -0.02,0.01 -0.02,0.01 -0.02,0 -0.02,0.01 -0.03,0.01 -0.02,0 -0.02,0 -0.03,0.01 -0.03,0 -0.02,0 -0.03,0.01 -0.03,0 -0.03,0 c -0.75,0 -5.48,-0.46 -6.33,-0.55 -0.4,-0.05 -0.7,-0.3 -0.7,-0.95 0,-0.6 0.45,-0.6 1.2,-0.6 2.39,0 2.49,-0.34 2.49,-0.84 l -0.14,-1 -3,-11.81 c -0.89,1.84 -2.35,3.18 -4.58,3.18 l 0.05,-1.09 c 3.23,0 3.93,-4.08 3.93,-4.37 0,-0.32 -0.09,-0.61 -0.14,-0.86 l -2.5,-9.77 c -0.25,-0.89 -0.25,-0.98 -1,-1.84 -2.18,-2.74 -4.23,-3.53 -5.62,-3.53 -2.49,0 -3.19,2.73 -3.19,4.68 0,2.49 1.59,8.61 2.74,10.91 1.54,2.94 3.79,4.78 5.78,4.78 l -0.05,1.09 c -5.83,0 -12,-7.31 -12,-14.59 0,-4.69 2.73,-7.97 6.62,-7.97 0.99,0 3.49,0.21 6.47,3.74 0.41,-2.1 2.14,-3.74 4.53,-3.74 1.75,0 2.9,1.14 3.69,2.74 0.85,1.79 1.5,4.84 1.5,4.93 0,0.5 -0.45,0.5 -0.59,0.5 -0.5,0 -0.55,-0.2 -0.7,-0.9 -0.85,-3.24 -1.75,-6.17 -3.79,-6.17 -1.34,0 -1.5,1.29 -1.5,2.29 0,1.19 0.1,1.55 0.3,2.39 z"
           id="path6545"
           style="fill:#000000;stroke-width:0" /><path
           d="m 513.58,440.82 0,0.02 0,0.02 -0.01,0.01 0,0.02 0,0.02 0,0.02 -0.01,0.02 -0.01,0.02 0,0.02 -0.01,0.02 -0.01,0.02 -0.01,0.02 -0.01,0.02 -0.01,0.02 -0.02,0.02 -0.01,0.02 -0.02,0.02 -0.01,0.02 -0.02,0.02 -0.02,0.02 -0.03,0.01 -0.02,0.02 -0.02,0.01 -0.03,0.02 -0.03,0.01 -0.03,0.01 -0.01,0.01 -0.02,0 -0.01,0.01 -0.02,0 -0.02,0 -0.01,0.01 -0.02,0 -0.02,0 -0.02,0 -0.02,0 -0.02,0 -0.02,0 c -0.25,0 -0.31,-0.04 -0.91,-0.75 l -2.39,-2.84 c -1.29,2.34 -3.89,3.59 -7.12,3.59 -6.33,0 -12.3,-5.73 -12.3,-11.76 0,-4.03 2.64,-6.33 5.17,-7.06 l 5.33,-1.41 c 1.85,-0.44 4.6,-1.19 4.6,-5.28 0,-4.49 -4.1,-9.16 -8.97,-9.16 -3.19,0 -8.72,1.1 -8.72,7.27 0,1.2 0.25,2.39 0.3,2.69 0.04,0.2 0.09,0.25 0.09,0.35 0,0.5 -0.34,0.55 -0.59,0.55 -0.25,0 -0.35,-0.05 -0.5,-0.2 -0.21,-0.2 -2.99,-11.56 -2.99,-11.7 0,-0.3 0.25,-0.5 0.55,-0.5 0.25,0 0.3,0.04 0.89,0.75 l 2.45,2.82 c 2.14,-2.89 5.52,-3.57 8.41,-3.57 6.78,0 12.65,6.62 12.65,12.79 0,3.44 -1.68,5.14 -2.43,5.83 -1.14,1.16 -1.89,1.34 -6.33,2.5 -1.1,0.3 -2.89,0.8 -3.34,0.89 -1.35,0.45 -3.04,1.89 -3.04,4.53 0,4.05 3.99,8.28 8.72,8.28 4.14,0 7.17,-2.14 7.17,-7.73 0,-1.59 -0.2,-2.49 -0.2,-2.78 0,-0.05 0,-0.5 0.61,-0.5 0.5,0 0.55,0.15 0.74,1 z"
           id="path6547"
           style="fill:#000000;stroke-width:0" /><path
           d="m 517.9,401.82 0.17,0.17 0.16,0.17 0.17,0.16 0.17,0.17 0.18,0.17 0.09,0.09 0.1,0.1 0.1,0.09 0.11,0.1 0.11,0.1 0.11,0.11 0.13,0.11 0.13,0.11 0.13,0.12 0.15,0.13 0.15,0.13 0.16,0.14 0.17,0.14 0.17,0.15 0.19,0.16 0.2,0.16 0.21,0.17 0.22,0.18 0.23,0.19 0.25,0.2 0.25,0.21 0.27,0.21 c 0.74,0.6 3.35,2.69 4.36,3.66 2.13,2.09 3.46,3.87 3.46,4.29 0,0.41 -0.46,0.41 -0.6,0.41 -0.31,0 -0.42,-0.06 -0.59,-0.34 -1.08,-1.6 -1.81,-2.13 -2.64,-2.13 -0.42,0 -0.96,0.03 -2,1.05 -1.17,1.19 -1.94,1.42 -2.75,1.42 -2.78,0 -4.67,-3.03 -4.67,-4.06 0,-0.33 0.35,-0.42 0.59,-0.42 0.42,0 0.5,0.09 0.62,0.48 0.54,1.22 2.49,1.3 3.05,1.3 0.8,0 1.7,-0.22 2.19,-0.33 1.92,-0.41 2.15,-0.41 3.03,-0.41 -0.91,-0.95 -1.53,-1.57 -4.84,-4.22 -2.72,-2.15 -3.66,-3.03 -4.32,-3.73 -2.09,-2.05 -3.11,-3.58 -3.11,-3.91 0,-0.4 0.46,-0.4 0.6,-0.4 0.34,0 0.42,0.06 0.59,0.34 0.94,1.33 2.02,2.13 3.2,2.13 0.43,0 0.94,-0.03 1.88,-0.91 1.09,-1.05 1.78,-1.56 2.91,-1.56 3.71,0 6.06,4.22 6.06,5.39 0,0.42 -0.39,0.45 -0.6,0.45 -0.42,0 -0.5,-0.17 -0.62,-0.55 -0.67,-1.75 -2.72,-2.57 -4.44,-2.57 -0.79,0 -1.67,0.17 -2.53,0.37 -1.61,0.35 -1.89,0.35 -2.51,0.35 -0.08,0 -0.6,0 -0.8,-0.04 z"
           id="path6549"
           style="fill:#000000;stroke-width:0" /></g>    </g>
    <path
       d="m 544.47222,410.91532 c -3.68068,-14.72275 -8.95926,-19.09145 -14.50117,-21.65471 -3.58385,-1.6576 -8.73234,-3.59911 -8.73234,-3.59911"
       id="path6643"
       style="fill:none;stroke:#000000;stroke-width:1px;stroke-linecap:butt;stroke-linejoin:miter;stroke-opacity:1;marker-end:url(#Arrow2Lend)" />
    <path
       d="m 506.59151,239.69446 c -12.6412,5.94879 -18.33332,29.01005 -19.36587,38.03824 -0.44618,3.90119 -0.83719,6.40847 -0.83719,6.40847"
       id="path6643-7"
       style="fill:none;stroke:#000000;stroke-width:1px;stroke-linecap:butt;stroke-linejoin:miter;stroke-opacity:1;marker-end:url(#Arrow2Lend)" />
    <path
       d="m 330.31988,281.61579 c -5.19802,7.79703 0.47029,15.89043 5.1766,19.44905 2.81237,2.12654 4.92492,3.78446 4.92492,3.78446"
       id="path6643-7-0"
       style="fill:none;stroke:#000000;stroke-width:1px;stroke-linecap:butt;stroke-linejoin:miter;stroke-opacity:1;marker-end:url(#Arrow2Lend)" />
    <path
       d="m 374.79164,572.03465 c -12.12182,-5.05075 -7.07107,-38.3858 -7.07107,-38.3858"
       id="path6643-7-0-9"
       style="fill:none;stroke:#000000;stroke-width:1px;stroke-linecap:butt;stroke-linejoin:miter;stroke-opacity:1;marker-end:url(#Arrow2Lend)" />
    <path
       d="m 383.27833,352.49975 c -36.04588,-16.95055 -65.28954,-31.03177 -64.98591,-31.29159 0.63223,-0.54102 100.36993,-26.28197 102.9856,-26.57919 1.65227,-0.18775 1.85272,0.30567 5.14366,12.66178 1.88341,7.07143 3.4401,13.41965 3.4593,14.10715 0.0237,0.84783 0.60944,1.25 1.82063,1.25 l 1.78571,0 0,-15.66615 c 0,-14.29982 0.10902,-15.69916 1.25,-16.04453 7.4198,-2.24597 48.92838,-12.5491 49.39505,-12.26069 0.34027,0.21031 0.83618,1.83275 1.10202,3.60544 0.26583,1.77269 0.71086,3.22307 0.98897,3.22307 0.2781,0 1.59462,-2.00893 2.92559,-4.46429 1.33097,-2.45535 2.50032,-4.56837 2.59857,-4.69559 0.29437,-0.38121 27.07636,-7.11674 27.34402,-6.87689 0.22425,0.20095 -68.72052,112.13289 -69.80995,113.33657 -0.25592,0.28275 -29.95738,-13.35454 -66.00326,-30.30509 l 0,0 z"
       id="path9233"
       style="fill:#ececec;stroke:none" />
    <path
       d="m 481.70161,398.79548 c -16.89286,-7.9533 -30.61469,-14.75977 -30.49295,-15.12549 0.12174,-0.36572 16.148,-26.37924 35.61391,-57.80781 l 35.39257,-57.14285 -0.40613,4.28571 c -0.22337,2.35714 -2.21405,34.33929 -4.42373,71.07143 -2.20969,36.73214 -4.23176,67.32433 -4.4935,67.98263 -0.4037,1.01537 -5.13493,-0.99659 -31.19017,-13.26362 z"
       id="path9235"
       style="fill:#ececec;stroke:none" />
    <path
       d="m 427.75059,301.3979 c -0.9698,-3.83036 -1.76327,-7.26259 -1.76327,-7.62718 0,-0.3646 0.88393,-0.8993 1.96429,-1.18823 l 1.96428,-0.52533 0,8.15251 c 0,4.48388 -0.0904,8.15251 -0.20101,8.15251 -0.11056,0 -0.99449,-3.13393 -1.96429,-6.96428 z"
       id="path9237"
       style="fill:#e6e6e6;stroke:none" />
    <path
       d="m 314.91856,548.24032 -0.003,-51.90759 20.1167,-24.52098 c 11.06419,-13.48655 21.2093,-25.74954 22.5447,-27.2511 1.94966,-2.19225 2.26124,-2.93102 1.58155,-3.75 -0.46554,-0.56094 -1.11272,-1.0199 -1.43817,-1.0199 -0.32546,0 -10.09186,4.3036 -21.70313,9.56356 l -21.11138,9.56355 0.0365,-36.77068 c 0.0315,-31.70564 0.17824,-36.71631 1.0654,-36.37587 0.601,0.23062 1.36808,-0.23897 1.84451,-1.12918 0.66798,-1.24814 0.58626,-1.69171 -0.45148,-2.45052 -0.6969,-0.50959 -1.54117,-0.75714 -1.87615,-0.55011 -0.33498,0.20703 -0.60906,-12.79474 -0.60906,-28.89283 l 0,-29.26924 21.96429,10.3244 66.35697,31.19137 c 27.16259,12.7679 44.17929,21.14422 43.84287,21.58127 -0.41493,0.53904 -124.07632,200.35471 -130.84836,211.42857 -1.2787,2.09097 -1.31049,0.88601 -1.3131,-49.76472 l 0,0 z m 55.39388,-134.28799 c 0.62394,-1.96588 -1.13917,-3.38031 -3.62196,-2.9057 -1.3997,0.26757 -1.70202,0.10042 -1.37234,-0.75872 0.26443,-0.68907 -0.15603,-1.41168 -1.12231,-1.92882 -1.7729,-0.94882 -1.59784,-1.0573 -3.11767,1.93191 -1.57253,3.09287 -1.49488,3.31628 0.98059,2.82118 1.17857,-0.23571 2.14286,-0.18165 2.14286,0.12015 0,0.44842 3.06792,1.74741 5.13043,2.17227 0.26817,0.0552 0.70935,-0.59828 0.9804,-1.45227 l 0,0 z m -11.11083,-2.33471 c 0,-0.52028 -0.64286,-1.11407 -1.42857,-1.31954 -1.04278,-0.2727 -1.42858,-0.0219 -1.42858,0.9286 0,1.29676 1.30182,2.21634 2.32143,1.63982 0.29465,-0.1666 0.53572,-0.7286 0.53572,-1.24888 z m -4.28572,-0.39829 c 0,-0.78572 -0.46317,-1.42858 -1.02927,-1.42858 -1.26185,0 -2.06861,1.17546 -1.47073,2.14286 0.77678,1.25686 2.5,0.76451 2.5,-0.71428 z m -3.70582,-0.90106 c 0.16507,-0.85714 -0.21959,-1.2418 -1.2418,-1.2418 -1.02222,0 -1.48095,0.45873 -1.48095,1.48094 0,1.83047 2.36417,1.62281 2.72275,-0.23914 z m -4.15132,-0.52752 c 0,-0.95237 -0.47619,-1.42857 -1.42857,-1.42857 -0.95238,0 -1.42857,0.4762 -1.42857,1.42857 0,0.95238 0.47619,1.42858 1.42857,1.42858 0.95238,0 1.42857,-0.4762 1.42857,-1.42858 z m -3.92857,-0.71428 c 0,-0.57853 -0.5625,-1.16019 -1.25,-1.29259 -0.87704,-0.1689 -1.25,0.21677 -1.25,1.29259 0,1.07582 0.37296,1.46149 1.25,1.29259 0.6875,-0.1324 1.25,-0.71406 1.25,-1.29259 z m -7.51094,-1.52384 c 0.006,-0.24882 -0.63192,-0.62051 -1.41763,-0.82598 -1.04278,-0.2727 -1.42857,-0.0219 -1.42857,0.9286 0,2.19533 2.79308,2.09463 2.8462,-0.10262 z m 3.44797,0.99632 c -0.35858,-1.86195 -2.72275,-2.0696 -2.72275,-0.23914 0,1.02221 0.45874,1.48094 1.48095,1.48094 1.02221,0 1.40687,-0.38465 1.2418,-1.2418 z m 20.72382,-0.25226 c 0.80193,-1.28411 0.7508,-1.63224 -0.3639,-2.47729 -1.76123,-1.33518 -2.18766,-1.2724 -3.114,0.45847 -0.64652,1.20803 -0.5507,1.67293 0.51059,2.47728 1.72791,1.30959 1.87758,1.28647 2.96731,-0.45846 z m -28.44657,-0.64879 c 0,-0.95238 -0.47619,-1.42857 -1.42857,-1.42857 -1.37656,0 -1.93564,1.39769 -0.95238,2.38095 0.98326,0.98326 2.38095,0.42418 2.38095,-0.95238 z m -4.28571,0.41556 c 0,-0.1643 0.1951,-0.80716 0.43356,-1.42857 0.30629,-0.79818 0.0142,-1.12985 -0.995,-1.12985 -1.41709,0 -2.59015,1.61032 -1.7703,2.43016 0.48347,0.48348 2.33174,0.58514 2.33174,0.12826 z m -3.57143,-1.84413 c 0,-0.95238 -0.47619,-1.42858 -1.42857,-1.42858 -0.95238,0 -1.42857,0.4762 -1.42857,1.42858 0,0.95237 0.47619,1.42857 1.42857,1.42857 0.95238,0 1.42857,-0.4762 1.42857,-1.42857 z m -4.28571,-0.71429 c 0,-0.79365 -0.47619,-1.42857 -1.07143,-1.42857 -0.58929,0 -1.07143,0.13443 -1.07143,0.29872 0,0.1643 -0.1951,0.80716 -0.43356,1.42857 -0.31082,0.80997 -0.007,1.12985 1.07143,1.12985 1.0288,0 1.50499,-0.45201 1.50499,-1.42857 z m 35.294,-1.93517 c -1.14678,-1.81802 -2.25323,-1.88546 -3.15925,-0.19255 -0.67505,1.26135 -0.58934,1.70097 0.48736,2.49975 1.78641,1.32529 3.84301,-0.4506 2.67189,-2.3072 z m -5.00096,-1.36965 c 0.50652,-1.31996 -0.71656,-3.12375 -2.11808,-3.12375 -1.07837,0 -2.05383,2.49611 -1.3932,3.56503 0.70042,1.1333 3.01887,0.84193 3.51128,-0.44128 l 0,0 z m -5.30909,-3.09376 c 0.61129,-1.14221 0.4626,-1.55159 -0.81118,-2.23329 -1.29349,-0.69226 -1.71965,-0.61594 -2.49698,0.44711 -0.69159,0.94581 -0.7303,1.53126 -0.14766,2.2333 1.13081,1.36253 2.58824,1.17397 3.45582,-0.44712 l 0,0 z m -5.163,-2.86587 c 0.75139,-1.20316 0.6606,-1.52413 -0.6258,-2.21259 -1.18959,-0.63665 -1.73613,-0.57382 -2.60998,0.30003 -0.90997,0.90997 -0.9429,1.301 -0.18635,2.21259 1.23844,1.49223 2.3645,1.39351 3.42213,-0.30003 z m -5.22913,-3.11983 c 0.79063,-1.26842 -0.32856,-2.58026 -2.22226,-2.60478 -1.2997,-0.0168 -1.97642,2.91805 -0.83886,3.63805 1.24582,0.78852 2.10671,0.49793 3.06112,-1.03327 l 0,0 z m -5.27337,-2.6769 c 0.88498,-1.65359 0.91744,-1.58022 -1.18136,-2.67008 -1.2865,-0.66806 -1.62088,-0.52926 -2.29634,0.95322 -0.65054,1.42779 -0.57361,1.86161 0.43434,2.44915 1.76256,1.02743 2.1517,0.93379 3.04336,-0.73229 z m -5.20333,-3.06394 c 0.67245,-1.47586 0.54976,-1.79826 -0.94316,-2.47848 -1.46658,-0.66822 -1.83517,-0.55957 -2.5345,0.74714 -0.67374,1.25891 -0.58892,1.69683 0.48005,2.47848 1.77151,1.29536 2.10484,1.21228 2.99761,-0.74714 z"
       id="path9239"
       style="fill:#cccccc;stroke:none" />
    <path
       d="m 314.93461,477.26524 0.0187,-14.2602 17.91397,-8.07921 c 9.85269,-4.44357 18.04744,-7.94575 18.21057,-7.78262 0.25156,0.25155 -32.2319,40.29243 -35.15691,43.33632 -0.86524,0.90041 -1.00246,-0.93799 -0.98635,-13.21429 z"
       id="path9241"
       style="fill:#cccccc;stroke:none" />
    <path
       d="m 319.91589,595.95695 c 0,-0.31396 128.26643,-208.02622 129.0382,-208.96205 0.28575,-0.34649 7.31898,2.89636 38.64038,17.81611 12.66964,6.03511 23.03571,11.18097 23.03571,11.43525 0,0.25428 -7.72154,7.74941 -17.15898,16.65583 -14.81015,13.97684 -17.39317,16.13472 -18.86988,15.76409 -1.92293,-0.48262 -3.7744,1.74989 -2.50443,3.01986 0.4379,0.43789 -0.12423,1.44509 -1.556,2.78799 -1.48557,1.39336 -2.3504,1.80131 -2.56424,1.20958 -0.17746,-0.49107 -0.75905,-0.89286 -1.29241,-0.89286 -1.51373,0 -2.10281,1.56002 -0.91751,2.42979 0.8753,0.6423 -7.87674,9.22091 -48.28374,47.32697 l -49.35281,46.54247 -0.22084,-3.22639 c -0.25315,-3.69831 0.0972,-4.36104 1.63215,-3.08716 0.88545,0.73486 1.08879,0.72052 1.08924,-0.0768 10e-4,-2.439 -2.39113,-12.69724 -2.88952,-12.38921 -0.57451,0.35506 -6.39675,10.69242 -6.39675,11.3574 0,0.2051 0.93656,0.18562 2.08123,-0.0433 l 2.08123,-0.41625 0.2402,4.95887 0.2402,4.95885 -18.08291,17.08237 c -21.18748,20.01516 -27.98852,26.27191 -27.98852,25.74857 z M 465.43151,453.98943 c 0.98178,-0.98179 0.39623,-2.7701 -0.90702,-2.7701 -1.28205,0 -1.85161,1.05073 -1.32021,2.43554 0.51422,1.34004 1.12935,1.43244 2.22723,0.33456 l 0,0 z m -2.09857,-3.37386 c 0.8764,-0.55609 0.5012,-2.97957 -0.45775,-2.95674 -1.25348,0.0298 -2.24297,1.3061 -1.83564,2.3676 0.51022,1.32962 0.94882,1.44229 2.29339,0.58914 z m 7.32857,-2.31193 c 0.64652,-1.20804 0.55071,-1.67293 -0.51058,-2.47728 -1.72791,-1.30959 -1.87759,-1.28647 -2.96731,0.45846 -0.80194,1.2841 -0.7508,1.63223 0.36389,2.47728 1.76123,1.33519 2.18767,1.27241 3.114,-0.45846 z m -9.18772,-1.61912 c 0.49495,-0.52986 1.44439,-0.82099 2.10985,-0.64697 0.71734,0.18759 1.52935,-0.28041 1.99446,-1.14949 0.65536,-1.22454 0.52773,-1.60333 -0.77515,-2.30061 -1.2735,-0.68155 -1.71556,-0.62153 -2.40926,0.32715 -0.46726,0.63903 -1.15164,1.16187 -1.52082,1.16187 -1.15118,0 -2.29175,1.55616 -1.89617,2.58704 0.47792,1.24542 1.34649,1.25273 2.49709,0.021 l 0,0 z m -1.22583,-4.45574 c 0.66586,-1.01623 1.10461,-1.93698 0.97501,-2.0461 -0.1296,-0.10913 -0.91193,-0.54958 -1.73851,-0.97878 -1.27619,-0.66266 -1.64257,-0.51932 -2.42909,0.95033 -0.75058,1.40245 -0.75377,1.9385 -0.0169,2.82646 1.25628,1.51372 1.8099,1.38402 3.20941,-0.75191 l 4e-5,0 z"
       id="path9243"
       style="fill:#cccccc;stroke:none" />
  </g>
</svg>
