<?xml version="1.0" encoding="UTF-8" standalone="no"?>
<!-- Created with Inkscape (http://www.inkscape.org/) -->

<svg
   xmlns:dc="http://purl.org/dc/elements/1.1/"
   xmlns:cc="http://creativecommons.org/ns#"
   xmlns:rdf="http://www.w3.org/1999/02/22-rdf-syntax-ns#"
   xmlns:svg="http://www.w3.org/2000/svg"
   xmlns="http://www.w3.org/2000/svg"
   xmlns:sodipodi="http://sodipodi.sourceforge.net/DTD/sodipodi-0.dtd"
   xmlns:inkscape="http://www.inkscape.org/namespaces/inkscape"
   width="744.09448819"
   height="1052.3622047"
   id="svg7231"
   version="1.1"
   inkscape:version="0.48.4 r9939"
   sodipodi:docname="sphere.svg">
  <sodipodi:namedview
     id="base"
     pagecolor="#ffffff"
     bordercolor="#666666"
     borderopacity="1.0"
     inkscape:pageopacity="0.0"
     inkscape:pageshadow="2"
     inkscape:zoom="1.979899"
     inkscape:cx="381.99221"
     inkscape:cy="786.23121"
     inkscape:document-units="px"
     inkscape:current-layer="layer1"
     showgrid="false"
     inkscape:window-width="1309"
     inkscape:window-height="744"
     inkscape:window-x="57"
     inkscape:window-y="24"
     inkscape:window-maximized="1" />
  <defs
     id="defs7233">
    <marker
       inkscape:stockid="Arrow1Send"
       orient="auto"
       refY="0.0"
       refX="0.0"
       id="Arrow1Send"
       style="overflow:visible;">
      <path
         id="path3966"
         d="M 0.0,0.0 L 5.0,-5.0 L -12.5,0.0 L 5.0,5.0 L 0.0,0.0 z "
         style="fill-rule:evenodd;stroke:#000000;stroke-width:1.0pt;"
         transform="scale(0.2) rotate(180) translate(6,0)" />
    </marker>
    <marker
       inkscape:stockid="Arrow1Sstart"
       orient="auto"
       refY="0.0"
       refX="0.0"
       id="Arrow1Sstart"
       style="overflow:visible">
      <path
         id="path3963"
         d="M 0.0,0.0 L 5.0,-5.0 L -12.5,0.0 L 5.0,5.0 L 0.0,0.0 z "
         style="fill-rule:evenodd;stroke:#000000;stroke-width:1.0pt"
         transform="scale(0.2) translate(6,0)" />
    </marker>
    <marker
       inkscape:stockid="Arrow1Mstart"
       orient="auto"
       refY="0.0"
       refX="0.0"
       id="Arrow1Mstart"
       style="overflow:visible">
      <path
         id="path3957"
         d="M 0.0,0.0 L 5.0,-5.0 L -12.5,0.0 L 5.0,5.0 L 0.0,0.0 z "
         style="fill-rule:evenodd;stroke:#000000;stroke-width:1.0pt"
         transform="scale(0.4) translate(10,0)" />
    </marker>
    <marker
       inkscape:stockid="Arrow1Mend"
       orient="auto"
       refY="0"
       refX="0"
       id="Arrow1Mend"
       style="overflow:visible">
      <path
         inkscape:connector-curvature="0"
         id="path3960"
         d="M 0,0 5,-5 -12.5,0 5,5 0,0 z"
         style="fill-rule:evenodd;stroke:#000000;stroke-width:1pt"
         transform="matrix(-0.4,0,0,-0.4,-4,0)" />
    </marker>
    <marker
       inkscape:stockid="Arrow1Mend"
       orient="auto"
       refY="0"
       refX="0"
       id="marker7269"
       style="overflow:visible">
      <path
         inkscape:connector-curvature="0"
         id="path7271"
         d="M 0,0 5,-5 -12.5,0 5,5 0,0 z"
         style="fill-rule:evenodd;stroke:#000000;stroke-width:1pt"
         transform="matrix(-0.4,0,0,-0.4,-4,0)" />
    </marker>
    <marker
       inkscape:stockid="Arrow1Mend"
       orient="auto"
       refY="0"
       refX="0"
       id="Arrow1Mend-5"
       style="overflow:visible">
      <path
         inkscape:connector-curvature="0"
         id="path3960-3"
         d="M 0,0 5,-5 -12.5,0 5,5 0,0 z"
         style="fill-rule:evenodd;stroke:#000000;stroke-width:1pt"
         transform="matrix(-0.4,0,0,-0.4,-4,0)" />
    </marker>
    <marker
       inkscape:stockid="Arrow1Mend"
       orient="auto"
       refY="0"
       refX="0"
       id="Arrow1Mend-5-6"
       style="overflow:visible">
      <path
         inkscape:connector-curvature="0"
         id="path3960-3-0"
         d="M 0,0 5,-5 -12.5,0 5,5 0,0 z"
         style="fill-rule:evenodd;stroke:#000000;stroke-width:1pt"
         transform="matrix(-0.4,0,0,-0.4,-4,0)" />
    </marker>
  </defs>
  <metadata
     id="metadata7236">
    <rdf:RDF>
      <cc:Work
         rdf:about="">
        <dc:format>image/svg+xml</dc:format>
        <dc:type
           rdf:resource="http://purl.org/dc/dcmitype/StillImage" />
        <dc:title />
      </cc:Work>
    </rdf:RDF>
  </metadata>
  <g
     inkscape:label="Livello 1"
     inkscape:groupmode="layer"
     id="layer1">
    <path
       transform="translate(-77.856758,127.14286)"
       sodipodi:open="true"
       sodipodi:end="6.347339"
       sodipodi:start="0.069500803"
       d="m 555.38838,231.77584 a 135,135.55583 0 1 1 0.0482,-0.72321"
       sodipodi:ry="135.55583"
       sodipodi:rx="135"
       sodipodi:cy="222.36218"
       sodipodi:cx="420.71429"
       id="path2985"
       style="fill:#ffffff;stroke:#000000;stroke-width:1;stroke-miterlimit:4;stroke-dasharray:none;stroke-dashoffset:0"
       sodipodi:type="arc" />
    <path
       inkscape:connector-curvature="0"
       id="path2987"
       d="m 324.26786,349.16575 184.28571,0"
       style="fill:none;stroke:#000000;stroke-width:1px;stroke-linecap:butt;stroke-linejoin:miter;stroke-opacity:1;marker-end:url(#Arrow1Mend)" />
    <path
       inkscape:connector-curvature="0"
       id="path2989"
       d="m 339.98214,358.8086 0,-165.71429"
       style="fill:none;stroke:#000000;stroke-width:1px;stroke-linecap:butt;stroke-linejoin:miter;stroke-opacity:1;marker-end:url(#Arrow1Mend)" />
    <path
       inkscape:connector-curvature="0"
       id="path2989-5"
       d="M 347.5845,341.58909 229.98416,452.9807"
       style="fill:none;stroke:#000000;stroke-width:1px;stroke-linecap:butt;stroke-linejoin:miter;stroke-opacity:1;marker-end:url(#Arrow1Mend)"
       sodipodi:nodetypes="cc" />
    <path
       transform="matrix(1,0,-0.99999396,1,144.69925,129.37238)"
       sodipodi:open="true"
       sodipodi:end="9.2329959"
       sodipodi:start="5.8385342"
       d="M 536.13871,205.47275 A 127.85714,39.26469 0 1 1 295.20127,229.84637"
       sodipodi:ry="39.26469"
       sodipodi:rx="127.85714"
       sodipodi:cy="222.36218"
       sodipodi:cx="420.71429"
       id="path2985-6"
       style="fill:none;stroke:#b3b3b3;stroke-width:1;stroke-miterlimit:4;stroke-dasharray:none;stroke-dashoffset:0"
       sodipodi:type="arc" />
    <path
       transform="matrix(0,-1,1,-0.87653032,114.80786,964.44522)"
       sodipodi:open="true"
       sodipodi:end="6.6646784"
       sodipodi:start="3.3282379"
       d="m 294.01202,214.54591 a 128.9417,42.12183 0 1 1 246.37432,23.49851"
       sodipodi:ry="42.12183"
       sodipodi:rx="128.9417"
       sodipodi:cy="222.36218"
       sodipodi:cx="420.71429"
       id="path2985-6-2"
       style="fill:none;stroke:#b3b3b3;stroke-width:1;stroke-miterlimit:4;stroke-dasharray:none;stroke-dashoffset:0"
       sodipodi:type="arc" />
    <path
       transform="translate(-82.499615,130.71428)"
       sodipodi:open="true"
       sodipodi:end="7.1276794"
       sodipodi:start="4.0431207"
       d="M 336.95864,116.04902 A 135,135.55583 0 0 1 510.36909,323.7085"
       sodipodi:ry="135.55583"
       sodipodi:rx="135"
       sodipodi:cy="222.36218"
       sodipodi:cx="420.71429"
       id="path2985-9"
       style="fill:none;stroke:#cccccc;stroke-width:1;stroke-miterlimit:4;stroke-dasharray:none;stroke-dashoffset:0"
       sodipodi:type="arc" />
    <path
       style="fill:none;stroke:#000000;stroke-width:1px;stroke-linecap:butt;stroke-linejoin:miter;stroke-opacity:1"
       d="m 340,348.79076 20.35715,-78.57144"
       id="path7389"
       inkscape:connector-curvature="0"
       sodipodi:nodetypes="cc" />
    <path
       style="fill:none;stroke:#000000;stroke-width:1px;stroke-linecap:butt;stroke-linejoin:miter;stroke-opacity:1"
       d="m 339.64286,349.1479 32.14286,37.14284"
       id="path7389-1"
       inkscape:connector-curvature="0"
       sodipodi:nodetypes="cc" />
    <path
       style="fill:none;stroke:#000000;stroke-width:1px;stroke-linecap:butt;stroke-linejoin:miter;stroke-opacity:1;marker-start:none;marker-end:url(#Arrow1Mend-5)"
       d="m 314.1124,373.07647 c 20,0 41.39268,-3.69398 41.39268,-3.69398"
       id="path7411"
       inkscape:connector-curvature="0"
       sodipodi:nodetypes="cc" />
    <path
       style="fill:none;stroke:#000000;stroke-width:1px;stroke-linecap:butt;stroke-linejoin:miter;stroke-opacity:1;marker-start:none;marker-end:url(#Arrow1Mend-5)"
       d="m 339.70414,280.26393 c 6.63469,7.5825 9.78278,15.11013 10.85147,19.6167 0.52716,2.22299 0.8222,3.52144 0.8222,3.52144"
       id="path7413"
       inkscape:connector-curvature="0"
       sodipodi:nodetypes="csc" />
    <path
       sodipodi:type="arc"
       style="fill:none;stroke:#999999;stroke-width:1;stroke-miterlimit:4;stroke-dasharray:none;stroke-dashoffset:0"
       id="path7945"
       sodipodi:cx="490.71429"
       sodipodi:cy="197.00504"
       sodipodi:rx="81.785721"
       sodipodi:ry="23.351707"
       d="m 551.27173,181.30983 a 81.785721,23.351707 0 1 1 -141.5878,18.8616"
       sodipodi:start="5.546114"
       sodipodi:end="9.288763"
       sodipodi:open="true"
       transform="matrix(1,0,-0.99999396,1,40.575269,52.5)" />
    <path
       sodipodi:type="arc"
       style="fill:none;stroke:#999999;stroke-width:1;stroke-miterlimit:4;stroke-dasharray:none;stroke-dashoffset:0"
       id="path7945-2"
       sodipodi:cx="490.71429"
       sodipodi:cy="197.00504"
       sodipodi:rx="103.92856"
       sodipodi:ry="27.994564"
       d="M 580.38348,182.85234 A 103.92856,27.994564 0 1 1 386.80194,196.51076"
       sodipodi:start="5.7531642"
       sodipodi:end="9.442435"
       sodipodi:open="true"
       transform="matrix(1,0,-0.99999396,1,43.433146,74.285717)" />
    <path
       transform="matrix(0,-1,-1,-0.87653032,562.65922,965.8364)"
       sodipodi:open="true"
       sodipodi:end="6.6646784"
       sodipodi:start="3.3347888"
       d="m 290.89565,216.26549 a 132.27963,31.754173 0 1 1 252.58867,17.91898"
       sodipodi:ry="31.754173"
       sodipodi:rx="132.27963"
       sodipodi:cy="222.36218"
       sodipodi:cx="420.71429"
       id="path2985-6-2-7"
       style="fill:none;stroke:#999999;stroke-width:1;stroke-miterlimit:4;stroke-dasharray:none;stroke-dashoffset:0"
       sodipodi:type="arc" />
    <path
       sodipodi:type="arc"
       style="fill:none;stroke:#999999;stroke-width:1;stroke-miterlimit:4;stroke-dasharray:none;stroke-dashoffset:0"
       id="path8001"
       sodipodi:cx="170.46324"
       sodipodi:cy="306.8696"
       sodipodi:rx="70.458145"
       sodipodi:ry="132.04396"
       d="M 161.55796,175.88456 A 70.458145,132.04396 0 0 1 191.7223,432.75961"
       sodipodi:start="4.585659"
       sodipodi:end="7.5474791"
       transform="matrix(1,0.40102129,0,1,170.2107,-25.933012)"
       sodipodi:open="true" />
    <path
       style="fill:none;stroke:#000000;stroke-width:1px;stroke-linecap:butt;stroke-linejoin:miter;stroke-opacity:1"
       d="m 340.34436,349.69085 24.90284,-53.8227"
       id="path7389-9"
       inkscape:connector-curvature="0"
       sodipodi:nodetypes="cc" />
    <path
       style="fill:none;stroke:#000000;stroke-width:1px;stroke-linecap:butt;stroke-linejoin:miter;stroke-opacity:1"
       d="M 340.00734,349.41241 410.536,377.46388"
       id="path7389-1-3"
       inkscape:connector-curvature="0"
       sodipodi:nodetypes="cc" />
    <path
       style="fill:none;stroke:#000000;stroke-width:1px;stroke-linecap:butt;stroke-linejoin:miter;stroke-opacity:1;marker-mid:url(#Arrow1Mend-5)"
       d="m 352.03816,303.83915 c 3.26505,11.92749 4.7549,33.98804 4.7549,33.98804"
       id="path10147"
       inkscape:connector-curvature="0"
       sodipodi:nodetypes="cc" />
    <path
       style="fill:#000000;stroke:#000000;stroke-width:0.65231156px;stroke-linecap:butt;stroke-linejoin:miter;stroke-opacity:1"
       d="m 355.12864,319.21464 c -0.11742,0.44728 -1.13077,6.15577 -1.13077,6.15577 l 4.07646,-0.73679 z"
       id="path10341"
       inkscape:connector-curvature="0" />
    <path
       style="fill:none;stroke:#000000;stroke-width:1px;stroke-linecap:butt;stroke-linejoin:miter;stroke-opacity:1;marker-mid:url(#Arrow1Mend-5)"
       d="m 394.39687,361.08771 c -11.74307,3.87634 -37.99787,7.98387 -37.99787,7.98387"
       id="path10147-6"
       inkscape:connector-curvature="0"
       sodipodi:nodetypes="cc" />
    <path
       style="fill:#000000;stroke:#000000;stroke-width:0.65231156px;stroke-linecap:butt;stroke-linejoin:miter;stroke-opacity:1"
       d="m 379.59389,364.91168 c 0.45806,0.0634 6.24644,0.39257 6.24644,0.39257 l -1.21515,-3.96027 z"
       id="path10341-2"
       inkscape:connector-curvature="0" />
    <g
       id="g10425"
       transform="matrix(0.29468399,0,0,0.32399995,252.43472,193.78163)">
      <g
         id="content"
         transform="matrix(1.0629921,0,0,-1.0629921,-186.02362,789.27165)"
         xml:space="preserve"
         stroke-miterlimit="10.433"
         font-style="normal"
         font-variant="normal"
         font-weight="normal"
         font-stretch="normal"
         font-size-adjust="none"
         letter-spacing="normal"
         word-spacing="normal"
         style="font-style:normal;font-variant:normal;font-weight:normal;font-stretch:normal;letter-spacing:normal;word-spacing:normal;text-anchor:start;fill:none;stroke:#000000;stroke-linecap:butt;stroke-linejoin:miter;stroke-miterlimit:10.43299961;stroke-opacity:1;stroke-dasharray:none;stroke-dashoffset:0"><path
           d="m 463.99,397.73 -0.01,-0.03 -0.01,-0.03 -0.01,-0.03 -0.01,-0.03 -0.01,-0.02 -0.01,-0.03 -0.01,-0.05 -0.02,-0.05 -0.01,-0.04 -0.01,-0.05 -0.02,-0.04 -0.01,-0.04 -0.01,-0.03 -0.01,-0.04 -0.01,-0.03 -0.01,-0.03 -0.01,-0.03 -0.01,-0.03 0,-0.02 -0.01,-0.03 -0.01,-0.02 0,-0.02 -0.01,-0.03 0,-0.02 0,-0.02 -0.01,-0.04 -0.01,-0.04 0,-0.04 0,-0.04 0,-0.03 0,-0.02 c 0,-1.09 0.95,-1.39 1.45,-1.39 0.25,0 1.35,0.14 1.85,1.3 0.14,0.39 0.39,2.04 1.73,9.11 0.45,-0.05 0.8,-0.1 1.64,-0.1 8.28,0 15.95,7.83 15.95,15.69 l -1.4,-1.09 c 0,-5.63 -6.42,-11.71 -14.1,-11.71 h 0 c -0.39,0 -0.5,0 -0.89,0.05 -0.61,0 -0.65,0.05 -0.65,0.2 0,0.1 0.84,4.63 1,5.38 1.54,6.37 5.43,11.15 9.86,11.15 3.43,0 4.78,-2.68 4.78,-5.07 l 1.4,1.09 c 0,3.89 -1.95,6.87 -5.68,6.87 -7.22,0 -10.21,-9.65 -13.21,-19.37 -5.37,1 -8.17,3.78 -8.17,7.37 0,1.4 1.16,6.88 4.14,10.32 0.39,0.45 0.39,0.54 0.39,0.64 0,0.2 -0.09,0.5 -0.59,0.5 -1.39,0 -5.24,-7.22 -5.24,-12 0,-4.69 3.3,-8.33 8.63,-9.56 z"
           id="path10428"
           inkscape:connector-curvature="0"
           style="fill:#000000;stroke-width:0" /></g>    </g>
    <g
       id="g10514"
       transform="matrix(0.29468399,0,0,0.32399995,237.41648,271.69812)">
      <g
         word-spacing="normal"
         letter-spacing="normal"
         font-size-adjust="none"
         font-stretch="normal"
         font-weight="normal"
         font-variant="normal"
         font-style="normal"
         stroke-miterlimit="10.433"
         xml:space="preserve"
         transform="matrix(1.0629921,0,0,-1.0629921,-186.02362,789.27165)"
         id="g10516"
         style="font-style:normal;font-variant:normal;font-weight:normal;font-stretch:normal;letter-spacing:normal;word-spacing:normal;text-anchor:start;fill:none;stroke:#000000;stroke-linecap:butt;stroke-linejoin:miter;stroke-miterlimit:10.43299961;stroke-opacity:1;stroke-dasharray:none;stroke-dashoffset:0"><path
           id="path10518"
           d="m 478.19,431.11 0,0.31 -0.01,0.34 -0.02,0.36 -0.02,0.37 -0.03,0.39 -0.04,0.39 -0.04,0.41 -0.06,0.41 -0.07,0.42 -0.07,0.43 -0.09,0.42 -0.1,0.43 -0.12,0.42 -0.12,0.42 -0.14,0.41 -0.16,0.41 -0.17,0.4 -0.18,0.38 -0.2,0.37 -0.22,0.36 -0.23,0.34 -0.25,0.32 -0.28,0.3 -0.29,0.27 -0.31,0.25 -0.16,0.12 -0.17,0.1 -0.17,0.1 -0.18,0.1 -0.18,0.08 -0.19,0.08 -0.19,0.07 -0.2,0.06 -0.21,0.05 -0.21,0.05 -0.22,0.03 -0.22,0.02 -0.23,0.02 -0.23,0 -0.05,-1.09 c 2.44,0 2.73,-3.19 2.73,-6.03 0,-2.44 -0.39,-4.99 -1.59,-9.92 h -10.41 c 0.85,3.2 1.85,7.18 3.83,10.72 1.36,2.43 3.19,5.23 5.44,5.23 l 0.05,1.09 c -6.92,0 -14.6,-14.04 -14.6,-25.45 0,-4.69 1.44,-10.22 5.99,-10.22 v 1.1 c -1.66,0 -2.71,1.45 -2.71,6.07 0,2.1 0.3,4.99 1.6,9.86 h 10.37 c -0.54,-2.28 -1.59,-6.51 -3.5,-10.11 -1.73,-3.39 -3.62,-5.82 -5.76,-5.82 v -1.1 c 7.01,0 14.59,14.3 14.59,25.46 z"
           inkscape:connector-curvature="0"
           style="fill:#000000;stroke-width:0" /></g>    </g>
    <g
       id="g10610"
       transform="matrix(0.29468399,0,0,0.32399995,281.08469,264.74732)">
      <g
         id="g10612"
         transform="matrix(1.0629921,0,0,-1.0629921,-186.02362,789.27165)"
         xml:space="preserve"
         stroke-miterlimit="10.433"
         font-style="normal"
         font-variant="normal"
         font-weight="normal"
         font-stretch="normal"
         font-size-adjust="none"
         letter-spacing="normal"
         word-spacing="normal"
         style="font-style:normal;font-variant:normal;font-weight:normal;font-stretch:normal;letter-spacing:normal;word-spacing:normal;text-anchor:start;fill:none;stroke:#000000;stroke-linecap:butt;stroke-linejoin:miter;stroke-miterlimit:10.43299961;stroke-opacity:1;stroke-dasharray:none;stroke-dashoffset:0"><path
           d="m 481.22,440.23 0,0 0,0.01 0,0 0,0.01 0,0.02 0,0.01 0,0.02 0,0.02 -0.01,0.02 0,0.02 -0.01,0.02 0,0.02 -0.01,0.02 -0.01,0.03 -0.01,0.02 -0.01,0.03 -0.02,0.02 -0.01,0.03 -0.02,0.02 -0.02,0.02 -0.02,0.03 -0.02,0.01 -0.01,0.01 -0.01,0.01 -0.02,0.01 -0.01,0.01 -0.02,0.01 -0.01,0.01 -0.02,0.01 -0.01,0.01 -0.02,0.01 -0.02,0 -0.02,0.01 -0.02,0.01 -0.02,0 -0.02,0.01 -0.03,0.01 -0.02,0 -0.02,0 -0.03,0.01 -0.03,0 -0.02,0 -0.03,0.01 -0.03,0 -0.03,0 c -0.75,0 -5.48,-0.46 -6.33,-0.55 -0.4,-0.05 -0.7,-0.3 -0.7,-0.95 0,-0.6 0.45,-0.6 1.2,-0.6 2.39,0 2.49,-0.34 2.49,-0.84 l -0.14,-1 -3,-11.81 c -0.89,1.84 -2.35,3.18 -4.58,3.18 l 0.05,-1.09 c 3.23,0 3.93,-4.08 3.93,-4.37 0,-0.32 -0.09,-0.61 -0.14,-0.86 l -2.5,-9.77 c -0.25,-0.89 -0.25,-0.98 -1,-1.84 -2.18,-2.74 -4.23,-3.53 -5.62,-3.53 -2.49,0 -3.19,2.73 -3.19,4.68 0,2.49 1.59,8.61 2.74,10.91 1.54,2.94 3.79,4.78 5.78,4.78 l -0.05,1.09 c -5.83,0 -12,-7.31 -12,-14.59 0,-4.69 2.73,-7.97 6.62,-7.97 0.99,0 3.49,0.21 6.47,3.74 0.41,-2.1 2.14,-3.74 4.53,-3.74 1.75,0 2.9,1.14 3.69,2.74 0.85,1.79 1.5,4.84 1.5,4.93 0,0.5 -0.45,0.5 -0.59,0.5 -0.5,0 -0.55,-0.2 -0.7,-0.9 -0.85,-3.24 -1.75,-6.17 -3.79,-6.17 -1.34,0 -1.5,1.29 -1.5,2.29 0,1.19 0.1,1.55 0.3,2.39 z"
           id="path10614"
           inkscape:connector-curvature="0"
           style="fill:#000000;stroke-width:0" /><path
           d="m 504.11,431.11 0,0.31 -0.01,0.34 -0.02,0.36 -0.02,0.37 -0.03,0.39 -0.04,0.39 -0.05,0.41 -0.05,0.41 -0.07,0.42 -0.08,0.43 -0.08,0.42 -0.11,0.43 -0.11,0.42 -0.12,0.42 -0.14,0.41 -0.16,0.41 -0.17,0.4 -0.18,0.38 -0.2,0.37 -0.22,0.36 -0.23,0.34 -0.26,0.32 -0.27,0.3 -0.29,0.27 -0.31,0.25 -0.16,0.12 -0.17,0.1 -0.17,0.1 -0.18,0.1 -0.18,0.08 -0.19,0.08 -0.19,0.07 -0.2,0.06 -0.21,0.05 -0.21,0.05 -0.22,0.03 -0.22,0.02 -0.23,0.02 -0.24,0 -0.04,-1.09 c 2.44,0 2.73,-3.19 2.73,-6.03 0,-2.44 -0.39,-4.99 -1.59,-9.92 h -10.41 c 0.85,3.2 1.85,7.18 3.83,10.72 1.36,2.43 3.19,5.23 5.44,5.23 l 0.04,1.09 c -6.92,0 -14.59,-14.04 -14.59,-25.45 0,-4.69 1.44,-10.22 5.99,-10.22 v 1.1 c -1.66,0 -2.71,1.45 -2.71,6.07 0,2.1 0.3,4.99 1.6,9.86 h 10.37 c -0.55,-2.28 -1.59,-6.51 -3.5,-10.11 -1.73,-3.39 -3.62,-5.82 -5.76,-5.82 v -1.1 c 7.01,0 14.59,14.3 14.59,25.46 z"
           id="path10616"
           inkscape:connector-curvature="0"
           style="fill:#000000;stroke-width:0" /></g>    </g>
    <g
       id="g10716"
       transform="matrix(0.29468399,0,0,0.32399995,269.03655,221.68865)">
      <g
         word-spacing="normal"
         letter-spacing="normal"
         font-size-adjust="none"
         font-stretch="normal"
         font-weight="normal"
         font-variant="normal"
         font-style="normal"
         stroke-miterlimit="10.433"
         xml:space="preserve"
         transform="matrix(1.0629921,0,0,-1.0629921,-186.02362,789.27165)"
         id="g10718"
         style="font-style:normal;font-variant:normal;font-weight:normal;font-stretch:normal;letter-spacing:normal;word-spacing:normal;text-anchor:start;fill:none;stroke:#000000;stroke-linecap:butt;stroke-linejoin:miter;stroke-miterlimit:10.43299961;stroke-opacity:1;stroke-dasharray:none;stroke-dashoffset:0"><path
           id="path10720"
           d="m 481.22,440.23 0,0 0,0.01 0,0 0,0.01 0,0.02 0,0.01 0,0.02 0,0.02 -0.01,0.02 0,0.02 -0.01,0.02 0,0.02 -0.01,0.02 -0.01,0.03 -0.01,0.02 -0.01,0.03 -0.02,0.02 -0.01,0.03 -0.02,0.02 -0.02,0.02 -0.02,0.03 -0.02,0.01 -0.01,0.01 -0.01,0.01 -0.02,0.01 -0.01,0.01 -0.02,0.01 -0.01,0.01 -0.02,0.01 -0.01,0.01 -0.02,0.01 -0.02,0 -0.02,0.01 -0.02,0.01 -0.02,0 -0.02,0.01 -0.03,0.01 -0.02,0 -0.02,0 -0.03,0.01 -0.03,0 -0.02,0 -0.03,0.01 -0.03,0 -0.03,0 c -0.75,0 -5.48,-0.46 -6.33,-0.55 -0.4,-0.05 -0.7,-0.3 -0.7,-0.95 0,-0.6 0.45,-0.6 1.2,-0.6 2.39,0 2.49,-0.34 2.49,-0.84 l -0.14,-1 -3,-11.81 c -0.89,1.84 -2.35,3.18 -4.58,3.18 l 0.05,-1.09 c 3.23,0 3.93,-4.08 3.93,-4.37 0,-0.32 -0.09,-0.61 -0.14,-0.86 l -2.5,-9.77 c -0.25,-0.89 -0.25,-0.98 -1,-1.84 -2.18,-2.74 -4.23,-3.53 -5.62,-3.53 -2.49,0 -3.19,2.73 -3.19,4.68 0,2.49 1.59,8.61 2.74,10.91 1.54,2.94 3.79,4.78 5.78,4.78 l -0.05,1.09 c -5.83,0 -12,-7.31 -12,-14.59 0,-4.69 2.73,-7.97 6.62,-7.97 0.99,0 3.49,0.21 6.47,3.74 0.41,-2.1 2.14,-3.74 4.53,-3.74 1.75,0 2.9,1.14 3.69,2.74 0.85,1.79 1.5,4.84 1.5,4.93 0,0.5 -0.45,0.5 -0.59,0.5 -0.5,0 -0.55,-0.2 -0.7,-0.9 -0.85,-3.24 -1.75,-6.17 -3.79,-6.17 -1.34,0 -1.5,1.29 -1.5,2.29 0,1.19 0.1,1.55 0.3,2.39 z"
           inkscape:connector-curvature="0"
           style="fill:#000000;stroke-width:0" /><path
           id="path10722"
           d="m 489.91,397.73 -0.01,-0.03 -0.01,-0.03 -0.01,-0.03 -0.01,-0.03 -0.01,-0.02 -0.01,-0.03 -0.01,-0.05 -0.02,-0.05 -0.01,-0.04 -0.02,-0.05 -0.01,-0.04 -0.01,-0.04 -0.01,-0.03 -0.01,-0.04 -0.01,-0.03 -0.01,-0.03 -0.01,-0.03 -0.01,-0.03 -0.01,-0.02 0,-0.03 -0.01,-0.02 0,-0.02 -0.01,-0.03 0,-0.02 -0.01,-0.02 0,-0.04 -0.01,-0.04 0,-0.04 0,-0.04 0,-0.03 0,-0.02 c 0,-1.09 0.95,-1.39 1.45,-1.39 0.25,0 1.34,0.14 1.84,1.3 0.14,0.39 0.39,2.04 1.74,9.11 0.45,-0.05 0.79,-0.1 1.64,-0.1 8.28,0 15.95,7.83 15.95,15.69 l -1.4,-1.09 c 0,-5.63 -6.43,-11.71 -14.1,-11.71 h 0 c -0.39,0 -0.5,0 -0.89,0.05 -0.61,0 -0.66,0.05 -0.66,0.2 0,0.1 0.85,4.63 1,5.38 1.55,6.37 5.44,11.15 9.86,11.15 3.44,0 4.79,-2.68 4.79,-5.07 l 1.4,1.09 c 0,3.89 -1.95,6.87 -5.69,6.87 -7.21,0 -10.2,-9.65 -13.2,-19.37 -5.37,1 -8.17,3.78 -8.17,7.37 0,1.4 1.16,6.88 4.14,10.32 0.39,0.45 0.39,0.54 0.39,0.64 0,0.2 -0.09,0.5 -0.59,0.5 -1.39,0 -5.24,-7.22 -5.24,-12 0,-4.69 3.3,-8.33 8.63,-9.56 z"
           inkscape:connector-curvature="0"
           style="fill:#000000;stroke-width:0" /></g>    </g>
    <path
       style="fill:#ececec;stroke:none;stroke-width:0.50507628999999998;stroke-miterlimit:4;stroke-dasharray:none;stroke-dashoffset:0"
       d="m 366.5272,293.26294 c -0.13997,-0.62504 -0.61087,-3.29563 -1.04645,-5.93465 -0.43558,-2.63902 -1.3723,-7.70985 -2.0816,-11.2685 -0.70931,-3.55865 -1.20869,-6.5462 -1.10975,-6.63901 0.099,-0.0928 3.36188,-0.75377 7.25097,-1.4688 3.88909,-0.71504 8.76946,-1.74908 10.84528,-2.29786 2.07582,-0.54879 3.81063,-0.95368 3.85514,-0.89976 0.96592,1.17027 6.94082,14.57151 9.55623,21.43391 l 1.20172,3.15312 -1.11243,0.25657 c -5.56227,1.28285 -8.91863,1.93591 -16.7698,3.26295 -5.00025,0.84516 -9.37114,1.53706 -9.71309,1.53755 -0.34195,5e-4 -0.73625,-0.51049 -0.87622,-1.13552 z"
       id="path11164"
       inkscape:connector-curvature="0" />
    <path
       style="fill:none;stroke:#000000;stroke-width:2;stroke-linecap:butt;stroke-linejoin:miter;stroke-miterlimit:4;stroke-opacity:1;stroke-dasharray:none;marker-end:url(#Arrow1Send)"
       d="m 361.12953,268.48381 11.11168,-40.91118"
       id="path11166"
       inkscape:connector-curvature="0" />
    <g
       id="g11612"
       transform="matrix(0.27349606,0,0,0.28858092,262.16199,180.90858)">
      <g
         id="g11614"
         transform="matrix(1.0629921,0,0,-1.0629921,-186.02362,789.27165)"
         xml:space="preserve"
         stroke-miterlimit="10.433"
         font-style="normal"
         font-variant="normal"
         font-weight="normal"
         font-stretch="normal"
         font-size-adjust="none"
         letter-spacing="normal"
         word-spacing="normal"
         style="font-style:normal;font-variant:normal;font-weight:normal;font-stretch:normal;letter-spacing:normal;word-spacing:normal;text-anchor:start;fill:none;stroke:#000000;stroke-linecap:butt;stroke-linejoin:miter;stroke-miterlimit:10.43299961;stroke-opacity:1;stroke-dasharray:none;stroke-dashoffset:0"><path
           d="m 481.38,423.14 0.47,0.11 0.48,0.12 0.48,0.14 0.48,0.15 0.49,0.16 0.48,0.18 0.48,0.19 0.47,0.2 0.47,0.22 0.47,0.23 0.46,0.24 0.45,0.25 0.43,0.27 0.43,0.28 0.42,0.29 0.4,0.3 0.39,0.31 0.37,0.32 0.36,0.34 0.33,0.35 0.32,0.35 0.29,0.37 0.28,0.38 0.25,0.39 0.22,0.4 0.2,0.41 0.17,0.42 0.15,0.43 0.11,0.44 0.08,0.45 0.05,0.46 0.02,0.47 c 0,4.28 -4.48,7.47 -11,7.47 h -14.2 c -1,0 -1.45,0 -1.45,-1 0,-0.55 0.45,-0.55 1.4,-0.55 0.1,0 1.05,0 1.89,-0.09 0.89,-0.11 1.35,-0.16 1.35,-0.8 0,-0.2 -0.05,-0.36 -0.21,-0.95 l -6.67,-26.75 c -0.5,-1.95 -0.59,-2.34 -4.53,-2.34 -0.91,0 -1.34,0 -1.34,-1 0,-0.55 0.59,-0.55 0.68,-0.55 1.41,0 4.89,0.16 6.29,0.16 1.39,0 4.93,-0.16 6.32,-0.16 0.41,0 1,0 1,1 0,0.55 -0.45,0.55 -1.39,0.55 -1.84,0 -3.25,0 -3.25,0.89 0,0.29 0.11,0.54 0.16,0.84 l 3.28,13.2 h 5.94 l -0.05,1.11 h -5.59 l 3.25,13 c 0.29,1.19 0.43,1.69 1.39,1.85 0.45,0.04 2.04,0.04 3.03,0.04 3.55,0 9.08,0 9.08,-4.93 0,-1.69 -0.8,-5.13 -2.75,-7.07 -1.28,-1.29 -3.92,-2.89 -8.41,-2.89 l 0.05,-1.11 c 4.53,0 5.42,-2.78 5.42,-4.53 0,-0.75 -0.39,-2.28 -0.69,-3.44 -0.36,-1.39 -0.79,-3.23 -0.79,-4.23 0,-5.37 5.96,-5.37 6.62,-5.37 4.23,0 5.97,5.03 5.97,5.73 0,0.59 -0.55,0.59 -0.59,0.59 -0.46,0 -0.55,-0.36 -0.65,-0.7 -1.25,-3.69 -3.39,-4.53 -4.54,-4.53 -1.64,0 -1.99,1.09 -1.99,3.05 0,1.53 0.3,4.07 0.5,5.67 0.1,0.7 0.21,1.64 0.21,2.34 0,3.83 -3.35,5.38 -4.69,5.88 z"
           id="path11616"
           inkscape:connector-curvature="0"
           style="fill:#000000;stroke-width:0" /></g>    </g>
    <g
       id="g11734"
       transform="matrix(0.27349606,0,0,0.28858092,292.74189,133.7379)">
      <g
         word-spacing="normal"
         letter-spacing="normal"
         font-size-adjust="none"
         font-stretch="normal"
         font-weight="normal"
         font-variant="normal"
         font-style="normal"
         stroke-miterlimit="10.433"
         xml:space="preserve"
         transform="matrix(1.0629921,0,0,-1.0629921,-186.02362,789.27165)"
         id="g11736"
         style="font-style:normal;font-variant:normal;font-weight:normal;font-stretch:normal;letter-spacing:normal;word-spacing:normal;text-anchor:start;fill:none;stroke:#000000;stroke-linecap:butt;stroke-linejoin:miter;stroke-miterlimit:10.43299961;stroke-opacity:1;stroke-dasharray:none;stroke-dashoffset:0"><polygon
           id="polygon11738"
           points="477.02,448.68 483.44,444.61 484.84,446.45 477.02,452.78 469.2,446.5 470.59,444.56 "
           style="fill:#000000;stroke-width:0" /><path
           id="path11740"
           d="m 482.93,423.14 0.53,0.14 0.51,0.16 0.5,0.16 0.47,0.18 0.46,0.18 0.44,0.19 0.42,0.2 0.4,0.21 0.39,0.22 0.37,0.22 0.34,0.23 0.34,0.24 0.31,0.24 0.3,0.25 0.28,0.26 0.26,0.26 0.25,0.26 0.22,0.27 0.22,0.28 0.19,0.28 0.18,0.28 0.16,0.29 0.15,0.29 0.13,0.3 0.12,0.29 0.1,0.3 0.08,0.3 0.07,0.31 0.05,0.3 0.04,0.31 0.02,0.3 0.01,0.31 c 0,5.05 -5.49,9.22 -14.85,9.22 h -18.93 v -2.34 h 5.39 v -29.49 h -5.39 v -2.34 c 1.79,0.16 6.68,0.16 8.78,0.16 2.08,0 6.97,0 8.76,-0.16 v 2.34 h -5.39 v 13.85 1.79 13.85 h 5.89 c 8.02,0 8.11,-3.88 8.11,-6.92 0,-2.79 0,-6.93 -8.22,-6.93 h -5.78 v -1.79 h 5.83 c 0.7,0 2.89,0 4.44,-1.69 1.59,-1.75 1.59,-2.69 1.59,-6.33 0,-3.3 0,-5.73 3.49,-7.42 2.2,-1.09 5.28,-1.3 7.33,-1.3 5.32,0 5.98,4.49 5.98,5.28 0,1.1 -0.7,1.1 -1.2,1.1 -1.05,0 -1.1,-0.5 -1.14,-1.14 -0.25,-2.35 -1.69,-3.44 -3.19,-3.44 -2.99,0 -3.44,3.53 -3.69,5.62 -0.09,0.55 -0.5,3.99 -0.55,4.24 -0.7,3.48 -3.43,5.03 -5.57,5.83 z"
           inkscape:connector-curvature="0"
           style="fill:#000000;stroke-width:0" /></g>    </g>
    <g
       transform="matrix(0.27349606,0,0,0.28858092,294.913,207.40642)"
       id="g11866">
      <g
         style="font-style:normal;font-variant:normal;font-weight:normal;font-stretch:normal;letter-spacing:normal;word-spacing:normal;text-anchor:start;fill:none;stroke:#000000;stroke-linecap:butt;stroke-linejoin:miter;stroke-miterlimit:10.43299961;stroke-opacity:1;stroke-dasharray:none;stroke-dashoffset:0"
         id="g11868"
         transform="matrix(1.0629921,0,0,-1.0629921,-186.02362,789.27165)"
         xml:space="preserve"
         stroke-miterlimit="10.433"
         font-style="normal"
         font-variant="normal"
         font-weight="normal"
         font-stretch="normal"
         font-size-adjust="none"
         letter-spacing="normal"
         word-spacing="normal"><path
           style="fill:#000000;stroke-width:0"
           inkscape:connector-curvature="0"
           d="m 481.38,423.14 0.47,0.11 0.48,0.12 0.48,0.14 0.48,0.15 0.49,0.16 0.48,0.18 0.48,0.19 0.47,0.2 0.47,0.22 0.47,0.23 0.46,0.24 0.45,0.25 0.43,0.27 0.43,0.28 0.42,0.29 0.4,0.3 0.39,0.31 0.37,0.32 0.36,0.34 0.33,0.35 0.32,0.35 0.29,0.37 0.28,0.38 0.25,0.39 0.22,0.4 0.2,0.41 0.17,0.42 0.15,0.43 0.11,0.44 0.08,0.45 0.05,0.46 0.02,0.47 c 0,4.28 -4.48,7.47 -11,7.47 h -14.2 c -1,0 -1.45,0 -1.45,-1 0,-0.55 0.45,-0.55 1.4,-0.55 0.1,0 1.05,0 1.89,-0.09 0.89,-0.11 1.35,-0.16 1.35,-0.8 0,-0.2 -0.05,-0.36 -0.21,-0.95 l -6.67,-26.75 c -0.5,-1.95 -0.59,-2.34 -4.53,-2.34 -0.91,0 -1.34,0 -1.34,-1 0,-0.55 0.59,-0.55 0.68,-0.55 1.41,0 4.89,0.16 6.29,0.16 1.39,0 4.93,-0.16 6.32,-0.16 0.41,0 1,0 1,1 0,0.55 -0.45,0.55 -1.39,0.55 -1.84,0 -3.25,0 -3.25,0.89 0,0.29 0.11,0.54 0.16,0.84 l 3.28,13.2 h 5.94 l -0.05,1.11 h -5.59 l 3.25,13 c 0.29,1.19 0.43,1.69 1.39,1.85 0.45,0.04 2.04,0.04 3.03,0.04 3.55,0 9.08,0 9.08,-4.93 0,-1.69 -0.8,-5.13 -2.75,-7.07 -1.28,-1.29 -3.92,-2.89 -8.41,-2.89 l 0.05,-1.11 c 4.53,0 5.42,-2.78 5.42,-4.53 0,-0.75 -0.39,-2.28 -0.69,-3.44 -0.36,-1.39 -0.79,-3.23 -0.79,-4.23 0,-5.37 5.96,-5.37 6.62,-5.37 4.23,0 5.97,5.03 5.97,5.73 0,0.59 -0.55,0.59 -0.59,0.59 -0.46,0 -0.55,-0.36 -0.65,-0.7 -1.25,-3.69 -3.39,-4.53 -4.54,-4.53 -1.64,0 -1.99,1.09 -1.99,3.05 0,1.53 0.3,4.07 0.5,5.67 0.1,0.7 0.21,1.64 0.21,2.34 0,3.83 -3.35,5.38 -4.69,5.88 z"
           id="path11870" /><path
           style="fill:#000000;stroke-width:0"
           inkscape:connector-curvature="0"
           d="m 519.38,440.23 0,0 0,0.01 0,0 0,0.01 0,0.02 0,0.01 -0.01,0.02 0,0.02 0,0.02 -0.01,0.02 0,0.02 -0.01,0.02 0,0.02 -0.01,0.03 -0.01,0.02 -0.02,0.03 -0.01,0.02 -0.02,0.03 -0.02,0.02 -0.02,0.02 -0.02,0.03 -0.01,0.01 -0.01,0.01 -0.02,0.01 -0.01,0.01 -0.01,0.01 -0.02,0.01 -0.01,0.01 -0.02,0.01 -0.02,0.01 -0.02,0.01 -0.02,0 -0.01,0.01 -0.03,0.01 -0.02,0 -0.02,0.01 -0.02,0.01 -0.02,0 -0.03,0 -0.02,0.01 -0.03,0 -0.03,0 -0.02,0.01 -0.03,0 -0.03,0 c -0.75,0 -5.49,-0.46 -6.33,-0.55 -0.41,-0.05 -0.7,-0.3 -0.7,-0.95 0,-0.6 0.45,-0.6 1.2,-0.6 2.39,0 2.49,-0.34 2.49,-0.84 l -0.15,-1 -3,-11.81 c -0.89,1.84 -2.34,3.18 -4.57,3.18 l 0.04,-1.09 c 3.24,0 3.94,-4.08 3.94,-4.37 0,-0.32 -0.09,-0.61 -0.14,-0.86 l -2.5,-9.77 c -0.25,-0.89 -0.25,-0.98 -1,-1.84 -2.19,-2.74 -4.23,-3.53 -5.63,-3.53 -2.48,0 -3.18,2.73 -3.18,4.68 0,2.49 1.59,8.61 2.73,10.91 1.55,2.94 3.8,4.78 5.78,4.78 l -0.04,1.09 c -5.83,0 -12,-7.31 -12,-14.59 0,-4.69 2.73,-7.97 6.62,-7.97 0.99,0 3.49,0.21 6.47,3.74 0.41,-2.1 2.14,-3.74 4.53,-3.74 1.75,0 2.89,1.14 3.69,2.74 0.84,1.79 1.5,4.84 1.5,4.93 0,0.5 -0.46,0.5 -0.59,0.5 -0.5,0 -0.55,-0.2 -0.71,-0.9 -0.84,-3.24 -1.75,-6.17 -3.78,-6.17 -1.34,0 -1.5,1.29 -1.5,2.29 0,1.19 0.09,1.55 0.3,2.39 z"
           id="path11872" /><path
           style="fill:#000000;stroke-width:0"
           inkscape:connector-curvature="0"
           d="m 528.06,397.73 -0.01,-0.03 -0.01,-0.03 0,-0.03 -0.01,-0.03 -0.01,-0.02 -0.01,-0.03 -0.02,-0.05 -0.01,-0.05 -0.02,-0.04 -0.01,-0.05 -0.01,-0.04 -0.01,-0.04 -0.02,-0.03 -0.01,-0.04 -0.01,-0.03 0,-0.03 -0.01,-0.03 -0.01,-0.03 -0.01,-0.02 -0.01,-0.03 0,-0.02 -0.01,-0.02 0,-0.03 -0.01,-0.02 0,-0.02 -0.01,-0.04 0,-0.04 0,-0.04 -0.01,-0.04 0,-0.03 0,-0.02 c 0,-1.09 0.96,-1.39 1.46,-1.39 0.25,0 1.34,0.14 1.84,1.3 0.14,0.39 0.39,2.04 1.73,9.11 0.46,-0.05 0.8,-0.1 1.64,-0.1 8.29,0 15.96,7.83 15.96,15.69 l -1.41,-1.09 c 0,-5.63 -6.42,-11.71 -14.09,-11.71 h 0 c -0.39,0 -0.5,0 -0.89,0.05 -0.61,0 -0.66,0.05 -0.66,0.2 0,0.1 0.84,4.63 1,5.38 1.55,6.37 5.44,11.15 9.86,11.15 3.44,0 4.78,-2.68 4.78,-5.07 l 1.41,1.09 c 0,3.89 -1.96,6.87 -5.69,6.87 -7.22,0 -10.2,-9.65 -13.2,-19.37 -5.38,1 -8.17,3.78 -8.17,7.37 0,1.4 1.15,6.88 4.14,10.32 0.39,0.45 0.39,0.54 0.39,0.64 0,0.2 -0.1,0.5 -0.6,0.5 -1.39,0 -5.23,-7.22 -5.23,-12 0,-4.69 3.3,-8.33 8.62,-9.56 z"
           id="path11874" /></g>    </g>
    <g
       transform="matrix(0.27349606,0,0,0.28858092,306.10302,164.04394)"
       id="g12184">
      <g
         style="font-style:normal;font-variant:normal;font-weight:normal;font-stretch:normal;letter-spacing:normal;word-spacing:normal;text-anchor:start;fill:none;stroke:#000000;stroke-linecap:butt;stroke-linejoin:miter;stroke-miterlimit:10.43299961;stroke-opacity:1;stroke-dasharray:none;stroke-dashoffset:0"
         id="g12186"
         transform="matrix(1.0629921,0,0,-1.0629921,-186.02362,789.27165)"
         xml:space="preserve"
         stroke-miterlimit="10.433"
         font-style="normal"
         font-variant="normal"
         font-weight="normal"
         font-stretch="normal"
         font-size-adjust="none"
         letter-spacing="normal"
         word-spacing="normal"><path
           style="fill:#000000;stroke-width:0"
           inkscape:connector-curvature="0"
           d="m 481.38,423.14 0.47,0.11 0.48,0.12 0.48,0.14 0.48,0.15 0.49,0.16 0.48,0.18 0.48,0.19 0.47,0.2 0.47,0.22 0.47,0.23 0.46,0.24 0.45,0.25 0.43,0.27 0.43,0.28 0.42,0.29 0.4,0.3 0.39,0.31 0.37,0.32 0.36,0.34 0.33,0.35 0.32,0.35 0.29,0.37 0.28,0.38 0.25,0.39 0.22,0.4 0.2,0.41 0.17,0.42 0.15,0.43 0.11,0.44 0.08,0.45 0.05,0.46 0.02,0.47 c 0,4.28 -4.48,7.47 -11,7.47 h -14.2 c -1,0 -1.45,0 -1.45,-1 0,-0.55 0.45,-0.55 1.4,-0.55 0.1,0 1.05,0 1.89,-0.09 0.89,-0.11 1.35,-0.16 1.35,-0.8 0,-0.2 -0.05,-0.36 -0.21,-0.95 l -6.67,-26.75 c -0.5,-1.95 -0.59,-2.34 -4.53,-2.34 -0.91,0 -1.34,0 -1.34,-1 0,-0.55 0.59,-0.55 0.68,-0.55 1.41,0 4.89,0.16 6.29,0.16 1.39,0 4.93,-0.16 6.32,-0.16 0.41,0 1,0 1,1 0,0.55 -0.45,0.55 -1.39,0.55 -1.84,0 -3.25,0 -3.25,0.89 0,0.29 0.11,0.54 0.16,0.84 l 3.28,13.2 h 5.94 l -0.05,1.11 h -5.59 l 3.25,13 c 0.29,1.19 0.43,1.69 1.39,1.85 0.45,0.04 2.04,0.04 3.03,0.04 3.55,0 9.08,0 9.08,-4.93 0,-1.69 -0.8,-5.13 -2.75,-7.07 -1.28,-1.29 -3.92,-2.89 -8.41,-2.89 l 0.05,-1.11 c 4.53,0 5.42,-2.78 5.42,-4.53 0,-0.75 -0.39,-2.28 -0.69,-3.44 -0.36,-1.39 -0.79,-3.23 -0.79,-4.23 0,-5.37 5.96,-5.37 6.62,-5.37 4.23,0 5.97,5.03 5.97,5.73 0,0.59 -0.55,0.59 -0.59,0.59 -0.46,0 -0.55,-0.36 -0.65,-0.7 -1.25,-3.69 -3.39,-4.53 -4.54,-4.53 -1.64,0 -1.99,1.09 -1.99,3.05 0,1.53 0.3,4.07 0.5,5.67 0.1,0.7 0.21,1.64 0.21,2.34 0,3.83 -3.35,5.38 -4.69,5.88 z"
           id="path12188" /><path
           style="fill:#000000;stroke-width:0"
           inkscape:connector-curvature="0"
           d="m 504.04,415.87 0.11,-0.02 0.12,-0.02 0.15,-0.03 0.15,-0.04 0.17,-0.04 0.18,-0.04 0.19,-0.05 0.2,-0.06 0.2,-0.06 0.21,-0.07 0.22,-0.08 0.22,-0.08 0.22,-0.1 0.22,-0.1 0.22,-0.11 0.22,-0.12 0.21,-0.14 0.22,-0.14 0.2,-0.15 0.2,-0.16 0.19,-0.18 0.18,-0.19 0.17,-0.2 0.16,-0.21 0.14,-0.22 0.07,-0.12 0.06,-0.12 0.06,-0.13 0.05,-0.12 0.05,-0.14 0.04,-0.13 0.05,-0.14 0.03,-0.14 0.03,-0.15 0.03,-0.15 0.02,-0.16 0.01,-0.15 0.01,-0.17 0,-0.16 c 0,-2.53 -1.75,-4.53 -5.62,-4.53 -4.19,0 -5.99,2.84 -6.94,7.07 -0.14,0.64 -0.19,0.85 -0.69,0.85 -0.65,0 -0.65,-0.35 -0.65,-1.25 v -6.58 c 0,-0.84 0,-1.19 0.54,-1.19 0.25,0 0.3,0.05 1.25,1 0.1,0.1 0.1,0.19 1,1.14 2.19,-2.09 4.44,-2.14 5.49,-2.14 5.72,0 8.01,3.35 8.01,6.92 0,2.64 -1.5,4.14 -2.09,4.74 -1.64,1.59 -3.59,2 -5.69,2.39 -2.78,0.55 -6.12,1.2 -6.12,4.09 0,1.74 1.29,3.78 5.58,3.78 5.48,0 5.73,-4.48 5.82,-6.03 0.07,-0.45 0.5,-0.45 0.61,-0.45 0.64,0 0.64,0.25 0.64,1.2 v 5.03 c 0,0.85 0,1.19 -0.54,1.19 -0.25,0 -0.35,0 -1,-0.59 -0.14,-0.21 -0.64,-0.64 -0.85,-0.8 -1.89,1.39 -3.93,1.39 -4.68,1.39 -6.08,0 -7.97,-3.33 -7.97,-6.12 0,-1.74 0.79,-3.14 2.14,-4.24 1.59,-1.29 3,-1.59 6.58,-2.28 z"
           id="path12190" /><path
           style="fill:#000000;stroke-width:0"
           inkscape:connector-curvature="0"
           d="m 522.17,428.21 -6.97,-0.54 v -1.55 c 3.23,0 3.69,-0.3 3.69,-2.73 v -13.41 c 0,-2.23 -0.55,-2.23 -3.89,-2.23 v -1.55 c 1.59,0.05 4.28,0.16 5.48,0.16 1.75,0 3.49,-0.11 5.19,-0.16 v 1.55 c -3.3,0 -3.5,0.25 -3.5,2.18 z"
           id="path12192" /><path
           style="fill:#000000;stroke-width:0"
           inkscape:connector-curvature="0"
           d="m 522.37,436.89 0,0.14 -0.01,0.15 -0.02,0.14 -0.03,0.14 -0.03,0.13 -0.03,0.13 -0.05,0.13 -0.05,0.12 -0.05,0.12 -0.06,0.12 -0.07,0.11 -0.07,0.1 -0.07,0.1 -0.08,0.1 -0.09,0.1 -0.09,0.08 -0.09,0.09 -0.1,0.08 -0.1,0.07 -0.1,0.07 -0.11,0.07 -0.11,0.06 -0.11,0.05 -0.12,0.05 -0.12,0.04 -0.12,0.04 -0.12,0.03 -0.13,0.03 -0.12,0.02 -0.13,0.01 -0.13,0.01 -0.13,0.01 c -1.55,0 -2.64,-1.35 -2.64,-2.64 0,-1.35 1.09,-2.64 2.64,-2.64 1.39,0 2.64,1.04 2.64,2.64 z"
           id="path12194" /><path
           style="fill:#000000;stroke-width:0"
           inkscape:connector-curvature="0"
           d="m 532.64,423.34 v -13.36 c 0,-2.23 -0.55,-2.23 -3.89,-2.23 v -1.55 c 1.75,0.05 4.28,0.16 5.62,0.16 1.3,0 3.89,-0.11 5.58,-0.16 v 1.55 c -3.33,0 -3.88,0 -3.88,2.23 v 9.17 c 0,5.19 3.53,7.97 6.72,7.97 3.14,0 3.69,-2.69 3.69,-5.53 v -11.61 c 0,-2.23 -0.55,-2.23 -3.89,-2.23 v -1.55 c 1.75,0.05 4.3,0.16 5.64,0.16 1.3,0 3.87,-0.11 5.58,-0.16 v 1.55 c -2.59,0 -3.84,0 -3.89,1.5 v 9.51 c 0,4.28 0,5.83 -1.55,7.61 -0.69,0.86 -2.34,1.84 -5.22,1.84 -3.64,0 -5.98,-2.14 -7.37,-5.21 v 5.21 l -7.03,-0.54 v -1.55 c 3.48,0 3.89,-0.34 3.89,-2.78 z"
           id="path12196" /><path
           style="fill:#000000;stroke-width:0"
           inkscape:connector-curvature="0"
           d="m 563.34,397.73 -0.01,-0.03 -0.01,-0.03 -0.01,-0.03 -0.01,-0.03 0,-0.02 -0.01,-0.03 -0.02,-0.05 -0.01,-0.05 -0.02,-0.04 -0.01,-0.05 -0.01,-0.04 -0.02,-0.04 -0.01,-0.03 -0.01,-0.04 -0.01,-0.03 -0.01,-0.03 -0.01,-0.03 0,-0.03 -0.01,-0.02 -0.01,-0.03 0,-0.02 -0.01,-0.02 0,-0.03 -0.01,-0.02 0,-0.02 -0.01,-0.04 0,-0.04 -0.01,-0.04 0,-0.04 0,-0.03 0,-0.02 c 0,-1.09 0.95,-1.39 1.45,-1.39 0.25,0 1.35,0.14 1.85,1.3 0.14,0.39 0.39,2.04 1.73,9.11 0.45,-0.05 0.8,-0.1 1.64,-0.1 8.28,0 15.96,7.83 15.96,15.69 l -1.41,-1.09 c 0,-5.63 -6.42,-11.71 -14.09,-11.71 h 0 c -0.4,0 -0.5,0 -0.9,0.05 -0.6,0 -0.65,0.05 -0.65,0.2 0,0.1 0.84,4.63 1,5.38 1.55,6.37 5.43,11.15 9.86,11.15 3.44,0 4.78,-2.68 4.78,-5.07 l 1.41,1.09 c 0,3.89 -1.96,6.87 -5.69,6.87 -7.22,0 -10.21,-9.65 -13.21,-19.37 -5.37,1 -8.17,3.78 -8.17,7.37 0,1.4 1.16,6.88 4.14,10.32 0.39,0.45 0.39,0.54 0.39,0.64 0,0.2 -0.09,0.5 -0.59,0.5 -1.39,0 -5.24,-7.22 -5.24,-12 0,-4.69 3.3,-8.33 8.63,-9.56 z"
           id="path12198" /><path
           style="fill:#000000;stroke-width:0"
           inkscape:connector-curvature="0"
           d="m 613.21,440.23 0,0 0,0.01 0,0 0,0.01 0,0.02 0,0.01 0,0.02 -0.01,0.02 0,0.02 0,0.02 -0.01,0.02 -0.01,0.02 0,0.02 -0.01,0.03 -0.01,0.02 -0.02,0.03 -0.01,0.02 -0.02,0.03 -0.01,0.02 -0.02,0.02 -0.03,0.03 -0.01,0.01 -0.01,0.01 -0.01,0.01 -0.02,0.01 -0.01,0.01 -0.02,0.01 -0.01,0.01 -0.02,0.01 -0.02,0.01 -0.01,0.01 -0.02,0 -0.02,0.01 -0.02,0.01 -0.02,0 -0.03,0.01 -0.02,0.01 -0.02,0 -0.03,0 -0.02,0.01 -0.03,0 -0.02,0 -0.03,0.01 -0.03,0 -0.03,0 c -0.75,0 -5.48,-0.46 -6.33,-0.55 -0.4,-0.05 -0.7,-0.3 -0.7,-0.95 0,-0.6 0.45,-0.6 1.2,-0.6 2.39,0 2.49,-0.34 2.49,-0.84 l -0.14,-1 -3,-11.81 c -0.89,1.84 -2.35,3.18 -4.58,3.18 l 0.04,-1.09 c 3.24,0 3.94,-4.08 3.94,-4.37 0,-0.32 -0.09,-0.61 -0.14,-0.86 l -2.5,-9.77 c -0.25,-0.89 -0.25,-0.98 -1,-1.84 -2.19,-2.74 -4.23,-3.53 -5.62,-3.53 -2.49,0 -3.19,2.73 -3.19,4.68 0,2.49 1.59,8.61 2.73,10.91 1.55,2.94 3.8,4.78 5.78,4.78 l -0.04,1.09 c -5.83,0 -12,-7.31 -12,-14.59 0,-4.69 2.73,-7.97 6.62,-7.97 0.99,0 3.49,0.21 6.47,3.74 0.41,-2.1 2.14,-3.74 4.53,-3.74 1.75,0 2.89,1.14 3.69,2.74 0.84,1.79 1.5,4.84 1.5,4.93 0,0.5 -0.45,0.5 -0.59,0.5 -0.5,0 -0.55,-0.2 -0.71,-0.9 -0.84,-3.24 -1.75,-6.17 -3.78,-6.17 -1.34,0 -1.5,1.29 -1.5,2.29 0,1.19 0.1,1.55 0.3,2.39 z"
           id="path12200" /><path
           style="fill:#000000;stroke-width:0"
           inkscape:connector-curvature="0"
           d="m 636.1,431.11 0,0.31 -0.01,0.34 -0.02,0.36 -0.02,0.37 -0.03,0.39 -0.04,0.39 -0.05,0.41 -0.05,0.41 -0.07,0.42 -0.08,0.43 -0.09,0.42 -0.1,0.43 -0.11,0.42 -0.13,0.42 -0.14,0.41 -0.15,0.41 -0.17,0.4 -0.18,0.38 -0.2,0.37 -0.22,0.36 -0.24,0.34 -0.25,0.32 -0.27,0.3 -0.29,0.27 -0.31,0.25 -0.16,0.12 -0.17,0.1 -0.17,0.1 -0.18,0.1 -0.18,0.08 -0.19,0.08 -0.2,0.07 -0.2,0.06 -0.2,0.05 -0.21,0.05 -0.22,0.03 -0.22,0.02 -0.23,0.02 -0.24,0 -0.04,-1.09 c 2.43,0 2.73,-3.19 2.73,-6.03 0,-2.44 -0.39,-4.99 -1.59,-9.92 H 620.8 c 0.85,3.2 1.85,7.18 3.83,10.72 1.36,2.43 3.19,5.23 5.44,5.23 l 0.04,1.09 c -6.92,0 -14.59,-14.04 -14.59,-25.45 0,-4.69 1.44,-10.22 5.98,-10.22 v 1.1 c -1.65,0 -2.7,1.45 -2.7,6.07 0,2.1 0.3,4.99 1.6,9.86 h 10.37 c -0.55,-2.28 -1.59,-6.51 -3.5,-10.11 -1.74,-3.39 -3.62,-5.82 -5.77,-5.82 v -1.1 c 7.02,0 14.6,14.3 14.6,25.46 z"
           id="path12202" /></g>    </g>
    <g
       id="g12368"
       transform="matrix(0.27109272,0,0,0.26517075,293.65419,193.84078)">
      <g
         word-spacing="normal"
         letter-spacing="normal"
         font-size-adjust="none"
         font-stretch="normal"
         font-weight="normal"
         font-variant="normal"
         font-style="normal"
         stroke-miterlimit="10.433"
         xml:space="preserve"
         transform="matrix(1.0629921,0,0,-1.0629921,-186.02362,789.27165)"
         id="g12370"
         style="font-style:normal;font-variant:normal;font-weight:normal;font-stretch:normal;letter-spacing:normal;word-spacing:normal;text-anchor:start;fill:none;stroke:#000000;stroke-linecap:butt;stroke-linejoin:miter;stroke-miterlimit:10.43299961;stroke-opacity:1;stroke-dasharray:none;stroke-dashoffset:0"><path
           id="path12372"
           d="m 481.22,440.23 0,0 0,0.01 0,0 0,0.01 0,0.02 0,0.01 0,0.02 0,0.02 -0.01,0.02 0,0.02 -0.01,0.02 0,0.02 -0.01,0.02 -0.01,0.03 -0.01,0.02 -0.01,0.03 -0.02,0.02 -0.01,0.03 -0.02,0.02 -0.02,0.02 -0.02,0.03 -0.02,0.01 -0.01,0.01 -0.01,0.01 -0.02,0.01 -0.01,0.01 -0.02,0.01 -0.01,0.01 -0.02,0.01 -0.01,0.01 -0.02,0.01 -0.02,0 -0.02,0.01 -0.02,0.01 -0.02,0 -0.02,0.01 -0.03,0.01 -0.02,0 -0.02,0 -0.03,0.01 -0.03,0 -0.02,0 -0.03,0.01 -0.03,0 -0.03,0 c -0.75,0 -5.48,-0.46 -6.33,-0.55 -0.4,-0.05 -0.7,-0.3 -0.7,-0.95 0,-0.6 0.45,-0.6 1.2,-0.6 2.39,0 2.49,-0.34 2.49,-0.84 l -0.14,-1 -3,-11.81 c -0.89,1.84 -2.35,3.18 -4.58,3.18 l 0.05,-1.09 c 3.23,0 3.93,-4.08 3.93,-4.37 0,-0.32 -0.09,-0.61 -0.14,-0.86 l -2.5,-9.77 c -0.25,-0.89 -0.25,-0.98 -1,-1.84 -2.18,-2.74 -4.23,-3.53 -5.62,-3.53 -2.49,0 -3.19,2.73 -3.19,4.68 0,2.49 1.59,8.61 2.74,10.91 1.54,2.94 3.79,4.78 5.78,4.78 l -0.05,1.09 c -5.83,0 -12,-7.31 -12,-14.59 0,-4.69 2.73,-7.97 6.62,-7.97 0.99,0 3.49,0.21 6.47,3.74 0.41,-2.1 2.14,-3.74 4.53,-3.74 1.75,0 2.9,1.14 3.69,2.74 0.85,1.79 1.5,4.84 1.5,4.93 0,0.5 -0.45,0.5 -0.59,0.5 -0.5,0 -0.55,-0.2 -0.7,-0.9 -0.85,-3.24 -1.75,-6.17 -3.79,-6.17 -1.34,0 -1.5,1.29 -1.5,2.29 0,1.19 0.1,1.55 0.3,2.39 z"
           inkscape:connector-curvature="0"
           style="fill:#000000;stroke-width:0" /><path
           id="path12374"
           d="m 513.58,440.82 0,0.02 0,0.02 -0.01,0.01 0,0.02 0,0.02 0,0.02 -0.01,0.02 -0.01,0.02 0,0.02 -0.01,0.02 -0.01,0.02 -0.01,0.02 -0.01,0.02 -0.01,0.02 -0.02,0.02 -0.01,0.02 -0.02,0.02 -0.01,0.02 -0.02,0.02 -0.02,0.02 -0.03,0.01 -0.02,0.02 -0.02,0.01 -0.03,0.02 -0.03,0.01 -0.03,0.01 -0.01,0.01 -0.02,0 -0.01,0.01 -0.02,0 -0.02,0 -0.01,0.01 -0.02,0 -0.02,0 -0.02,0 -0.02,0 -0.02,0 -0.02,0 c -0.25,0 -0.31,-0.04 -0.91,-0.75 l -2.39,-2.84 c -1.29,2.34 -3.89,3.59 -7.12,3.59 -6.33,0 -12.3,-5.73 -12.3,-11.76 0,-4.03 2.64,-6.33 5.17,-7.06 l 5.33,-1.41 c 1.85,-0.44 4.6,-1.19 4.6,-5.28 0,-4.49 -4.1,-9.16 -8.97,-9.16 -3.19,0 -8.72,1.1 -8.72,7.27 0,1.2 0.25,2.39 0.3,2.69 0.04,0.2 0.09,0.25 0.09,0.35 0,0.5 -0.34,0.55 -0.59,0.55 -0.25,0 -0.35,-0.05 -0.5,-0.2 -0.21,-0.2 -2.99,-11.56 -2.99,-11.7 0,-0.3 0.25,-0.5 0.55,-0.5 0.25,0 0.3,0.04 0.89,0.75 l 2.45,2.82 c 2.14,-2.89 5.52,-3.57 8.41,-3.57 6.78,0 12.65,6.62 12.65,12.79 0,3.44 -1.68,5.14 -2.43,5.83 -1.14,1.16 -1.89,1.34 -6.33,2.5 -1.1,0.3 -2.89,0.8 -3.34,0.89 -1.35,0.45 -3.04,1.89 -3.04,4.53 0,4.05 3.99,8.28 8.72,8.28 4.14,0 7.17,-2.14 7.17,-7.73 0,-1.59 -0.2,-2.49 -0.2,-2.78 0,-0.05 0,-0.5 0.61,-0.5 0.5,0 0.55,0.15 0.74,1 z"
           inkscape:connector-curvature="0"
           style="fill:#000000;stroke-width:0" /></g>    </g>
    <path
       style="fill:none;stroke:#000000;stroke-width:1px;stroke-linecap:butt;stroke-linejoin:miter;stroke-opacity:1;marker-end:url(#Arrow1Send)"
       d="m 374.26152,307.87976 c -6.06092,-5.05077 -1.95718,-9.47018 -2.27285,-13.13198 -0.26441,-3.06729 -1.18153,-4.62045 -3.15862,-5.1223 -1.23789,-0.31422 -2.17532,-0.54899 -2.17532,-0.54899"
       id="path12456"
       inkscape:connector-curvature="0"
       sodipodi:nodetypes="cssc" />
    <path
       style="fill:none;stroke:#000000;stroke-width:1px;stroke-linecap:butt;stroke-linejoin:miter;stroke-opacity:1;marker-end:url(#Arrow1Send)"
       d="m 388.90873,257.37213 c -7.18182,-3.73455 -10.25282,0.21793 -11.72926,2.90552 -1.11939,2.03766 -1.40272,2.65032 -1.40272,2.65032"
       id="path12458"
       inkscape:connector-curvature="0"
       sodipodi:nodetypes="csc" />
  </g>
</svg>
